<svg xmlns="http://www.w3.org/2000/svg" xmlns:xlink="http://www.w3.org/1999/xlink" width="500" zoomAndPan="magnify" viewBox="0 0 375 374.999991" height="500" preserveAspectRatio="xMidYMid meet" version="1.2"><defs><clipPath id="d29901f6cd"><path d="M 145.445312 192.558594 L 151.882812 192.558594 L 151.882812 230.179688 L 145.445312 230.179688 Z M 145.445312 192.558594 "/></clipPath><clipPath id="6ad755387f"><path d="M 145.765625 227.644531 C 145.691406 209.613281 146.515625 207.359375 146.515625 204.4375 C 146.589844 201.265625 145.015625 196.589844 145.617188 194.671875 C 145.914062 193.585938 146.664062 192.917969 147.414062 192.667969 C 148.089844 192.417969 149.289062 192.667969 149.816406 193.167969 C 150.414062 193.835938 150.867188 195.757812 150.640625 196.675781 C 150.339844 197.425781 149.367188 198.261719 148.691406 198.425781 C 147.941406 198.59375 146.742188 198.261719 146.289062 197.59375 C 145.765625 196.839844 145.464844 194.921875 145.839844 194.085938 C 146.140625 193.335938 147.191406 192.667969 147.941406 192.585938 C 148.691406 192.5 149.664062 192.835938 150.265625 193.667969 C 151.316406 195.089844 151.539062 198.511719 151.765625 202.183594 C 152.140625 208.527344 151.316406 224.972656 150.339844 228.226562 C 150.039062 229.144531 149.816406 229.394531 149.367188 229.730469 C 148.992188 230.0625 148.316406 230.230469 147.789062 230.148438 C 147.339844 230.148438 146.742188 229.730469 146.367188 229.3125 C 146.066406 228.894531 145.765625 227.644531 145.765625 227.644531 "/></clipPath><clipPath id="49f590732e"><path d="M 135.621094 154.742188 L 162.941406 154.742188 L 162.941406 197.085938 L 135.621094 197.085938 Z M 135.621094 154.742188 "/></clipPath><clipPath id="2d69dce131"><path d="M 144.117188 194.945312 C 139.539062 191.269531 137.742188 189.019531 136.839844 186.46875 C 135.640625 183.171875 135.640625 177.84375 135.640625 174.246094 C 135.714844 171.394531 135.789062 168.921875 136.539062 166.59375 C 137.367188 164.34375 138.941406 162.171875 140.367188 160.519531 C 141.492188 159.09375 142.316406 157.96875 144.039062 157.144531 C 146.816406 155.796875 153.640625 154.519531 156.039062 154.894531 C 157.242188 155.046875 157.765625 155.496094 158.441406 156.09375 C 159.492188 156.996094 160.390625 158.71875 161.140625 160.144531 C 161.816406 161.644531 162.492188 163.070312 162.714844 164.871094 C 163.089844 166.96875 162.867188 169.070312 162.566406 171.996094 C 162.191406 176.71875 160.992188 186.621094 159.640625 190.519531 C 158.964844 192.394531 158.515625 193.519531 157.390625 194.570312 C 156.191406 195.695312 154.242188 196.519531 152.664062 196.820312 C 151.164062 197.195312 149.515625 197.121094 148.015625 196.746094 C 146.441406 196.296875 143.964844 195.394531 143.289062 194.195312 C 142.839844 193.296875 142.992188 191.570312 143.515625 190.894531 C 144.117188 190.21875 145.992188 189.921875 146.816406 190.21875 C 147.492188 190.519531 148.242188 191.496094 148.316406 192.246094 C 148.464844 192.996094 148.015625 194.195312 147.492188 194.71875 C 146.964844 195.246094 145.765625 195.546875 145.015625 195.394531 C 144.265625 195.171875 143.367188 194.34375 143.066406 193.671875 C 142.765625 193.144531 142.765625 192.46875 142.992188 191.945312 C 143.214844 191.269531 143.890625 190.371094 144.789062 190.070312 C 146.140625 189.695312 149.515625 191.644531 151.089844 191.570312 C 152.140625 191.496094 152.890625 191.269531 153.492188 190.820312 C 154.015625 190.296875 154.242188 189.84375 154.617188 188.796875 C 155.589844 186.019531 156.714844 176.421875 157.164062 171.996094 C 157.390625 168.996094 157.539062 166.746094 157.316406 164.644531 C 157.089844 162.996094 157.164062 160.96875 156.039062 160.296875 C 154.617188 159.320312 150.265625 160.519531 148.089844 161.421875 C 146.367188 162.09375 145.089844 163.144531 143.890625 164.421875 C 142.691406 165.769531 141.566406 167.195312 141.039062 169.371094 C 140.066406 172.894531 140.367188 180.695312 141.191406 184.21875 C 141.714844 186.246094 142.617188 187.59375 143.664062 188.871094 C 144.566406 189.996094 146.441406 190.59375 147.039062 191.421875 C 147.492188 191.945312 147.714844 192.394531 147.714844 192.921875 C 147.640625 193.519531 147.265625 194.496094 146.742188 194.871094 C 146.140625 195.246094 144.117188 194.945312 144.117188 194.945312 "/></clipPath><clipPath id="bb91ad1eac"><path d="M 146.015625 165.019531 L 151.070312 165.019531 L 151.070312 181.125 L 146.015625 181.125 Z M 146.015625 165.019531 "/></clipPath><clipPath id="1382baf7a5"><path d="M 151.039062 166.902344 C 150.101562 178.296875 150.101562 179.835938 149.441406 180.496094 C 148.890625 180.992188 147.789062 181.101562 147.238281 180.882812 C 146.746094 180.71875 146.304688 179.945312 146.195312 179.453125 C 146.140625 178.957031 146.46875 178.1875 146.855469 177.855469 C 147.238281 177.46875 148.011719 177.304688 148.503906 177.414062 C 149.054688 177.582031 149.660156 178.128906 149.828125 178.625 C 149.992188 179.066406 149.882812 179.890625 149.550781 180.332031 C 149.277344 180.773438 148.503906 181.15625 148.011719 181.101562 C 147.40625 181.046875 146.578125 180.441406 146.25 179.671875 C 145.589844 178.128906 146.523438 174.003906 146.910156 171.472656 C 147.238281 169.269531 147.351562 166.242188 148.285156 165.417969 C 148.78125 164.976562 149.714844 164.921875 150.15625 165.199219 C 150.652344 165.417969 151.039062 166.902344 151.039062 166.902344 "/></clipPath><clipPath id="30128ce3f4"><path d="M 136 199.339844 L 141.882812 199.339844 L 141.882812 205.144531 L 136 205.144531 Z M 136 199.339844 "/></clipPath><clipPath id="0345ff13f6"><path d="M 141.867188 201.394531 C 141.117188 204.621094 140.742188 204.84375 140.214844 204.996094 C 139.539062 205.21875 138.117188 205.144531 137.441406 204.84375 C 136.992188 204.621094 136.691406 204.246094 136.464844 203.871094 C 136.242188 203.421875 136.015625 202.96875 136.015625 202.445312 C 136.089844 201.769531 136.617188 200.421875 137.140625 199.96875 C 137.515625 199.59375 137.964844 199.371094 138.492188 199.371094 C 139.164062 199.296875 141.117188 200.195312 141.117188 200.195312 "/></clipPath><clipPath id="649be4410e"><path d="M 136 207.441406 L 141.882812 207.441406 L 141.882812 213.246094 L 136 213.246094 Z M 136 207.441406 "/></clipPath><clipPath id="bc2ce5cbe0"><path d="M 141.867188 209.496094 C 141.117188 212.71875 140.742188 212.945312 140.214844 213.09375 C 139.539062 213.320312 138.117188 213.246094 137.441406 212.945312 C 136.992188 212.71875 136.691406 212.34375 136.464844 211.96875 C 136.242188 211.519531 136.015625 211.070312 136.015625 210.546875 C 136.089844 209.871094 136.617188 208.519531 137.140625 208.070312 C 137.515625 207.695312 137.964844 207.46875 138.492188 207.46875 C 139.164062 207.394531 141.117188 208.296875 141.117188 208.296875 "/></clipPath><filter x="0%" y="0%" width="100%" filterUnits="objectBoundingBox" id="1d152e56d1" height="100%"><feColorMatrix values="0 0 0 0 1 0 0 0 0 1 0 0 0 0 1 0 0 0 1 0" type="matrix" in="SourceGraphic"/></filter><clipPath id="100ab644af"><path d="M 0 0.441406 L 5.882812 0.441406 L 5.882812 6.246094 L 0 6.246094 Z M 0 0.441406 "/></clipPath><clipPath id="02331f7b91"><path d="M 5.867188 2.496094 C 5.117188 5.71875 4.742188 5.945312 4.214844 6.09375 C 3.539062 6.320312 2.117188 6.246094 1.441406 5.945312 C 0.992188 5.71875 0.691406 5.34375 0.464844 4.96875 C 0.242188 4.519531 0.015625 4.070312 0.015625 3.546875 C 0.0898438 2.871094 0.617188 1.519531 1.140625 1.070312 C 1.515625 0.695312 1.964844 0.46875 2.492188 0.46875 C 3.164062 0.394531 5.117188 1.296875 5.117188 1.296875 "/></clipPath><clipPath id="5a617fd1f8"><rect x="0" width="6" y="0" height="7"/></clipPath><clipPath id="6485349ef2"><path d="M 135.910156 217.265625 L 141.808594 217.265625 L 141.808594 223.070312 L 135.910156 223.070312 Z M 135.910156 217.265625 "/></clipPath><clipPath id="5751692a7c"><path d="M 141.789062 219.320312 C 141.039062 222.546875 140.664062 222.769531 140.140625 222.921875 C 139.464844 223.144531 138.039062 223.070312 137.367188 222.769531 C 136.914062 222.546875 136.617188 222.171875 136.390625 221.796875 C 136.164062 221.34375 135.941406 220.894531 135.941406 220.371094 C 136.015625 219.695312 136.539062 218.34375 137.066406 217.894531 C 137.441406 217.519531 137.890625 217.296875 138.414062 217.296875 C 139.089844 217.21875 141.039062 218.121094 141.039062 218.121094 "/></clipPath><clipPath id="bedf645c76"><path d="M 0.910156 0.265625 L 6.808594 0.265625 L 6.808594 6.070312 L 0.910156 6.070312 Z M 0.910156 0.265625 "/></clipPath><clipPath id="6019e3d7e8"><path d="M 6.789062 2.320312 C 6.039062 5.546875 5.664062 5.769531 5.140625 5.921875 C 4.464844 6.144531 3.039062 6.070312 2.367188 5.769531 C 1.914062 5.546875 1.617188 5.171875 1.390625 4.796875 C 1.164062 4.34375 0.941406 3.894531 0.941406 3.371094 C 1.015625 2.695312 1.539062 1.34375 2.066406 0.894531 C 2.441406 0.519531 2.890625 0.296875 3.414062 0.296875 C 4.089844 0.21875 6.039062 1.121094 6.039062 1.121094 "/></clipPath><clipPath id="15e62c90b3"><rect x="0" width="7" y="0" height="7"/></clipPath><clipPath id="a7767a1dac"><path d="M 223.097656 190.175781 L 229.539062 190.175781 L 229.539062 230 L 223.097656 230 Z M 223.097656 190.175781 "/></clipPath><clipPath id="176e6273ea"><path d="M 223.421875 227.296875 C 223.34375 208.21875 224.171875 205.835938 224.171875 202.742188 C 224.246094 199.386719 222.671875 194.441406 223.269531 192.410156 C 223.570312 191.261719 224.320312 190.554688 225.070312 190.289062 C 225.746094 190.023438 226.945312 190.289062 227.46875 190.820312 C 228.070312 191.523438 228.519531 193.554688 228.296875 194.527344 C 227.996094 195.324219 227.019531 196.207031 226.34375 196.382812 C 225.59375 196.558594 224.394531 196.207031 223.945312 195.5 C 223.421875 194.703125 223.121094 192.671875 223.496094 191.789062 C 223.796875 190.996094 224.84375 190.289062 225.59375 190.199219 C 226.34375 190.113281 227.320312 190.464844 227.921875 191.347656 C 228.96875 192.851562 229.195312 196.472656 229.421875 200.359375 C 229.796875 207.070312 228.96875 224.472656 227.996094 227.917969 C 227.695312 228.886719 227.46875 229.152344 227.019531 229.507812 C 226.644531 229.859375 225.96875 230.035156 225.445312 229.949219 C 224.996094 229.949219 224.394531 229.507812 224.019531 229.066406 C 223.71875 228.625 223.421875 227.296875 223.421875 227.296875 "/></clipPath><clipPath id="fdcf2a7dcb"><path d="M 212.503906 159.6875 L 229 159.6875 L 229 202.65625 L 212.503906 202.65625 Z M 212.503906 159.6875 "/></clipPath><clipPath id="b72a648066"><path d="M 223.273438 192.394531 C 223.875 163.886719 226.050781 164.765625 226.050781 165.003906 C 226.125 165.246094 224.476562 165.484375 223.648438 166.121094 C 222.375 167 220.726562 168.597656 219.75 170.515625 C 218.550781 173.070312 218.324219 177.144531 218.023438 180.335938 C 217.726562 183.371094 217.425781 186.644531 218.023438 189.199219 C 218.550781 191.277344 219.523438 193.195312 220.726562 194.632812 C 221.925781 196.148438 224.625 196.789062 225.300781 198.144531 C 225.824219 199.183594 225.898438 200.78125 225.375 201.5 C 224.925781 202.296875 223.199219 202.777344 222.375 202.535156 C 221.625 202.296875 220.875 201.339844 220.726562 200.539062 C 220.574219 199.820312 220.800781 198.542969 221.324219 198.066406 C 221.925781 197.425781 223.726562 197.1875 224.476562 197.425781 C 225 197.585938 225.449219 198.144531 225.601562 198.703125 C 225.898438 199.34375 225.976562 200.621094 225.523438 201.257812 C 225.074219 201.976562 223.726562 202.777344 222.601562 202.617188 C 221.101562 202.457031 218.851562 200.0625 217.425781 198.542969 C 216.074219 197.1875 214.949219 195.351562 214.125 193.914062 C 213.523438 192.714844 213.074219 191.996094 212.773438 190.558594 C 212.324219 188.402344 212.625 184.808594 212.773438 181.933594 C 212.925781 179.058594 213.226562 176.023438 213.675781 173.46875 C 214.125 171.394531 214.351562 169.554688 215.324219 167.71875 C 216.449219 165.5625 218.773438 162.847656 220.726562 161.492188 C 222.300781 160.453125 224.625 159.414062 225.824219 159.8125 C 226.726562 160.132812 227.324219 161.410156 227.773438 162.371094 C 228.226562 163.328125 228.300781 163.886719 228.523438 165.402344 C 229.050781 169.875 229.199219 188.722656 228.523438 192.394531 C 228.375 193.433594 228.226562 193.753906 227.851562 194.230469 C 227.476562 194.710938 226.800781 195.109375 226.199219 195.191406 C 225.675781 195.269531 224.851562 195.109375 224.398438 194.710938 C 223.875 194.230469 223.273438 192.394531 223.273438 192.394531 "/></clipPath><clipPath id="aad2a7908a"><path d="M 217.738281 165.238281 L 227.550781 165.238281 L 227.550781 180.351562 L 217.738281 180.351562 Z M 217.738281 165.238281 "/></clipPath><clipPath id="7accc8aadf"><path d="M 225.898438 169.316406 C 224.476562 176.902344 224.175781 177.382812 223.726562 177.703125 C 223.199219 178.019531 222.449219 178.179688 221.851562 178.101562 C 221.324219 177.941406 220.574219 177.703125 220.273438 177.0625 C 219.675781 176.105469 219.75 173.550781 220.125 171.792969 C 220.574219 169.875 221.925781 167 223.050781 165.964844 C 223.800781 165.402344 224.699219 165.164062 225.449219 165.324219 C 226.125 165.484375 227.023438 166.28125 227.324219 167 C 227.550781 167.558594 227.550781 168.121094 227.324219 168.917969 C 226.875 170.914062 224.25 176.742188 222.601562 178.179688 C 221.699219 178.980469 220.5 179.300781 219.75 179.140625 C 219.148438 179.058594 218.550781 178.5 218.25 177.941406 C 217.949219 177.460938 217.875 176.824219 217.949219 176.023438 C 218.023438 174.507812 218.773438 170.914062 219.898438 169.796875 C 220.726562 169.078125 222.976562 168.996094 222.898438 168.917969 C 222.898438 168.835938 219.898438 169.636719 219.824219 169.476562 C 219.824219 169.398438 220.949219 168.679688 221.550781 168.597656 C 222.074219 168.519531 222.824219 168.757812 223.351562 169.15625 C 223.875 169.636719 224.25 170.433594 224.398438 171.472656 C 224.550781 173.230469 223.800781 177.863281 222.675781 179.21875 C 222 180.019531 220.648438 180.417969 219.824219 180.175781 C 219.074219 179.859375 218.101562 178.582031 218.023438 177.621094 C 217.800781 176.582031 218.550781 175.066406 219.226562 174.109375 C 219.824219 173.230469 220.800781 172.351562 221.625 172.03125 C 222.226562 171.871094 222.898438 171.792969 223.425781 172.113281 C 224.101562 172.589844 225.074219 173.949219 225 174.828125 C 225 175.707031 223.425781 177.460938 223.199219 177.382812 C 222.976562 177.222656 224.023438 172.910156 224.398438 172.910156 C 224.773438 172.910156 225.375 175.863281 225.449219 176.984375 C 225.449219 177.78125 225.449219 178.421875 225.074219 178.980469 C 224.550781 179.617188 223.125 180.335938 222.300781 180.175781 C 221.625 180.097656 220.425781 178.582031 220.425781 178.582031 C 220.425781 178.582031 222.148438 180.257812 222.226562 180.175781 C 222.300781 180.097656 220.273438 178.421875 220.199219 177.542969 C 220.125 176.824219 220.648438 175.625 221.25 175.226562 C 222 174.746094 223.726562 174.746094 224.476562 175.226562 C 225.074219 175.707031 225.523438 176.902344 225.449219 177.621094 C 225.300781 178.5 224.175781 179.9375 223.351562 180.175781 C 222.675781 180.417969 221.550781 180.019531 221.023438 179.457031 C 220.5 178.898438 220.050781 177.703125 220.273438 176.984375 C 220.425781 176.105469 221.773438 174.746094 222.601562 174.667969 C 223.425781 174.585938 224.851562 175.625 225.226562 176.34375 C 225.523438 176.902344 225.523438 177.703125 225.300781 178.339844 C 225.074219 178.980469 224.25 179.859375 223.574219 180.175781 C 222.976562 180.335938 222.226562 180.257812 221.699219 180.019531 C 221.175781 179.699219 220.648438 179.300781 220.425781 178.582031 C 220.050781 177.222656 220.648438 172.671875 221.625 172.03125 C 222.300781 171.632812 223.949219 172.273438 224.476562 172.992188 C 225 173.628906 224.925781 175.066406 224.699219 176.105469 C 224.324219 177.300781 223.125 178.980469 222.226562 179.699219 C 221.699219 180.097656 221.101562 180.417969 220.5 180.257812 C 219.675781 180.097656 218.550781 179.300781 218.101562 178.339844 C 217.5 176.984375 217.726562 174.269531 218.25 172.589844 C 218.773438 171.074219 219.976562 169.238281 220.875 168.757812 C 221.476562 168.4375 222.226562 168.597656 222.75 168.835938 C 223.273438 169.078125 223.875 169.554688 224.101562 170.195312 C 224.398438 170.835938 224.476562 172.113281 224.023438 172.75 C 223.5 173.46875 220.5 173.628906 220.574219 173.789062 C 220.574219 174.027344 223.351562 173.390625 223.800781 173.949219 C 224.175781 174.585938 223.351562 176.742188 222.898438 177.621094 C 222.601562 178.261719 222.148438 178.820312 221.625 179.058594 C 220.949219 179.300781 219.824219 179.300781 219.148438 178.898438 C 218.550781 178.5 217.949219 177.703125 217.875 176.664062 C 217.800781 174.988281 219.601562 171.472656 220.800781 169.476562 C 221.773438 167.800781 223.050781 165.722656 224.175781 165.324219 C 225 165.085938 225.976562 165.484375 226.574219 165.882812 C 227.023438 166.28125 227.398438 166.761719 227.476562 167.640625 C 227.625 169.476562 225.75 175.066406 224.550781 176.742188 C 223.949219 177.542969 223.199219 178.019531 222.523438 178.101562 C 221.925781 178.179688 221.175781 177.941406 220.726562 177.542969 C 220.273438 177.144531 219.898438 176.664062 219.75 175.863281 C 219.375 174.1875 220.199219 169.078125 220.949219 167.558594 C 221.324219 166.839844 221.773438 166.441406 222.300781 166.203125 C 222.824219 165.964844 223.648438 165.882812 224.175781 166.121094 C 224.699219 166.28125 225.300781 166.839844 225.601562 167.320312 C 225.898438 167.878906 225.898438 169.316406 225.898438 169.316406 "/></clipPath><clipPath id="2efff83187"><path d="M 0.738281 0.238281 L 10.550781 0.238281 L 10.550781 15.351562 L 0.738281 15.351562 Z M 0.738281 0.238281 "/></clipPath><clipPath id="2e99610afa"><path d="M 8.898438 4.316406 C 7.476562 11.902344 7.175781 12.382812 6.726562 12.703125 C 6.199219 13.019531 5.449219 13.179688 4.851562 13.101562 C 4.324219 12.941406 3.574219 12.703125 3.273438 12.0625 C 2.675781 11.105469 2.75 8.550781 3.125 6.792969 C 3.574219 4.875 4.925781 2 6.050781 0.964844 C 6.800781 0.402344 7.699219 0.164062 8.449219 0.324219 C 9.125 0.484375 10.023438 1.28125 10.324219 2 C 10.550781 2.558594 10.550781 3.121094 10.324219 3.917969 C 9.875 5.914062 7.25 11.742188 5.601562 13.179688 C 4.699219 13.980469 3.5 14.300781 2.75 14.140625 C 2.148438 14.058594 1.550781 13.5 1.25 12.941406 C 0.949219 12.460938 0.875 11.824219 0.949219 11.023438 C 1.023438 9.507812 1.773438 5.914062 2.898438 4.796875 C 3.726562 4.078125 5.976562 3.996094 5.898438 3.917969 C 5.898438 3.835938 2.898438 4.636719 2.824219 4.476562 C 2.824219 4.398438 3.949219 3.679688 4.550781 3.597656 C 5.074219 3.519531 5.824219 3.757812 6.351562 4.15625 C 6.875 4.636719 7.25 5.433594 7.398438 6.472656 C 7.550781 8.230469 6.800781 12.863281 5.675781 14.21875 C 5 15.019531 3.648438 15.417969 2.824219 15.175781 C 2.074219 14.859375 1.101562 13.582031 1.023438 12.621094 C 0.800781 11.582031 1.550781 10.066406 2.226562 9.109375 C 2.824219 8.230469 3.800781 7.351562 4.625 7.03125 C 5.226562 6.871094 5.898438 6.792969 6.425781 7.113281 C 7.101562 7.589844 8.074219 8.949219 8 9.828125 C 8 10.707031 6.425781 12.460938 6.199219 12.382812 C 5.976562 12.222656 7.023438 7.910156 7.398438 7.910156 C 7.773438 7.910156 8.375 10.863281 8.449219 11.984375 C 8.449219 12.78125 8.449219 13.421875 8.074219 13.980469 C 7.550781 14.617188 6.125 15.335938 5.300781 15.175781 C 4.625 15.097656 3.425781 13.582031 3.425781 13.582031 C 3.425781 13.582031 5.148438 15.257812 5.226562 15.175781 C 5.300781 15.097656 3.273438 13.421875 3.199219 12.542969 C 3.125 11.824219 3.648438 10.625 4.25 10.226562 C 5 9.746094 6.726562 9.746094 7.476562 10.226562 C 8.074219 10.707031 8.523438 11.902344 8.449219 12.621094 C 8.300781 13.5 7.175781 14.9375 6.351562 15.175781 C 5.675781 15.417969 4.550781 15.019531 4.023438 14.457031 C 3.5 13.898438 3.050781 12.703125 3.273438 11.984375 C 3.425781 11.105469 4.773438 9.746094 5.601562 9.667969 C 6.425781 9.585938 7.851562 10.625 8.226562 11.34375 C 8.523438 11.902344 8.523438 12.703125 8.300781 13.339844 C 8.074219 13.980469 7.25 14.859375 6.574219 15.175781 C 5.976562 15.335938 5.226562 15.257812 4.699219 15.019531 C 4.175781 14.699219 3.648438 14.300781 3.425781 13.582031 C 3.050781 12.222656 3.648438 7.671875 4.625 7.03125 C 5.300781 6.632812 6.949219 7.273438 7.476562 7.992188 C 8 8.628906 7.925781 10.066406 7.699219 11.105469 C 7.324219 12.300781 6.125 13.980469 5.226562 14.699219 C 4.699219 15.097656 4.101562 15.417969 3.5 15.257812 C 2.675781 15.097656 1.550781 14.300781 1.101562 13.339844 C 0.5 11.984375 0.726562 9.269531 1.25 7.589844 C 1.773438 6.074219 2.976562 4.238281 3.875 3.757812 C 4.476562 3.4375 5.226562 3.597656 5.75 3.835938 C 6.273438 4.078125 6.875 4.554688 7.101562 5.195312 C 7.398438 5.835938 7.476562 7.113281 7.023438 7.75 C 6.5 8.46875 3.5 8.628906 3.574219 8.789062 C 3.574219 9.027344 6.351562 8.390625 6.800781 8.949219 C 7.175781 9.585938 6.351562 11.742188 5.898438 12.621094 C 5.601562 13.261719 5.148438 13.820312 4.625 14.058594 C 3.949219 14.300781 2.824219 14.300781 2.148438 13.898438 C 1.550781 13.5 0.949219 12.703125 0.875 11.664062 C 0.800781 9.988281 2.601562 6.472656 3.800781 4.476562 C 4.773438 2.800781 6.050781 0.722656 7.175781 0.324219 C 8 0.0859375 8.976562 0.484375 9.574219 0.882812 C 10.023438 1.28125 10.398438 1.761719 10.476562 2.640625 C 10.625 4.476562 8.75 10.066406 7.550781 11.742188 C 6.949219 12.542969 6.199219 13.019531 5.523438 13.101562 C 4.925781 13.179688 4.175781 12.941406 3.726562 12.542969 C 3.273438 12.144531 2.898438 11.664062 2.75 10.863281 C 2.375 9.1875 3.199219 4.078125 3.949219 2.558594 C 4.324219 1.839844 4.773438 1.441406 5.300781 1.203125 C 5.824219 0.964844 6.648438 0.882812 7.175781 1.121094 C 7.699219 1.28125 8.300781 1.839844 8.601562 2.320312 C 8.898438 2.878906 8.898438 4.316406 8.898438 4.316406 "/></clipPath><clipPath id="a5781bb66f"><rect x="0" width="11" y="0" height="16"/></clipPath><clipPath id="b2526c3916"><path d="M 213.953125 177.390625 L 226.8125 177.390625 L 226.8125 191.996094 L 213.953125 191.996094 Z M 213.953125 177.390625 "/></clipPath><clipPath id="f9a27202fb"><path d="M 218.699219 184.570312 C 218.398438 183.453125 217.425781 184.011719 217.050781 183.691406 C 216.601562 183.371094 216.375 181.933594 216.523438 181.214844 C 216.601562 180.578125 217.050781 179.9375 217.574219 179.617188 C 218.175781 179.21875 219.226562 179.058594 220.050781 179.300781 C 220.949219 179.699219 222.824219 181.535156 222.675781 182.015625 C 222.523438 182.492188 220.050781 182.015625 219.824219 182.492188 C 219.601562 183.050781 221.550781 184.570312 221.398438 185.046875 C 221.175781 185.609375 219.675781 185.6875 218.699219 185.6875 C 217.648438 185.6875 216.148438 185.527344 215.398438 184.96875 C 214.648438 184.410156 214.050781 183.371094 213.976562 182.492188 C 213.898438 181.535156 214.5 180.257812 215.101562 179.457031 C 215.773438 178.582031 216.976562 177.542969 218.023438 177.460938 C 218.925781 177.300781 219.976562 177.941406 220.875 178.421875 C 221.699219 178.980469 223.273438 179.9375 223.199219 180.496094 C 223.125 181.054688 220.726562 181.933594 220.574219 181.773438 C 220.425781 181.613281 221.625 179.859375 222.226562 179.378906 C 222.75 178.980469 223.425781 178.660156 224.023438 178.660156 C 224.550781 178.660156 225.300781 178.980469 225.75 179.378906 C 226.125 179.777344 226.425781 180.335938 226.574219 181.136719 C 226.875 182.8125 226.875 187.203125 225.75 189.042969 C 224.851562 190.558594 222.300781 192.234375 221.324219 191.917969 C 220.574219 191.757812 220.5 190.078125 219.824219 189.28125 C 219.074219 188.480469 217.425781 188.164062 216.898438 187.285156 C 216.449219 186.566406 216.300781 185.367188 216.601562 184.648438 C 216.976562 183.929688 218.25 182.8125 219.074219 182.890625 C 219.976562 182.972656 220.726562 184.808594 221.699219 185.289062 C 222.449219 185.6875 223.726562 185.128906 224.175781 185.6875 C 224.625 186.246094 224.625 188.082031 224.175781 188.882812 C 223.800781 189.519531 222.75 190.078125 222 190.078125 C 221.324219 190.078125 220.199219 189.601562 219.824219 188.882812 C 219.449219 188.164062 219.601562 186.246094 219.976562 185.527344 C 220.273438 184.96875 220.800781 184.648438 221.398438 184.570312 C 222.074219 184.488281 223.199219 184.730469 223.800781 185.207031 C 224.324219 185.765625 224.699219 186.886719 224.625 187.683594 C 224.476562 188.480469 223.800781 189.519531 223.125 189.761719 C 222.375 190.160156 220.648438 189.761719 220.050781 189.121094 C 219.523438 188.5625 219.300781 187.363281 219.449219 186.566406 C 219.601562 185.847656 220.425781 184.890625 221.101562 184.648438 C 221.773438 184.410156 222.976562 184.488281 223.574219 185.046875 C 224.175781 185.609375 224.773438 187.363281 224.476562 188.242188 C 224.175781 189.042969 222.976562 190 222 190.078125 C 220.726562 190.238281 218.175781 188.882812 217.273438 187.761719 C 216.675781 186.964844 216.375 185.527344 216.601562 184.648438 C 216.824219 183.929688 217.726562 183.210938 218.476562 182.972656 C 219.226562 182.734375 220.425781 183.050781 221.324219 183.371094 C 222.226562 183.691406 223.351562 184.171875 223.875 184.96875 C 224.324219 185.6875 224.699219 187.285156 224.25 188.003906 C 223.800781 188.800781 221.175781 189.679688 220.5 189.042969 C 219.523438 188.164062 220.800781 181.453125 221.851562 179.859375 C 222.375 179.058594 223.273438 178.660156 224.023438 178.660156 C 224.773438 178.738281 226.125 179.699219 226.425781 180.496094 C 226.726562 181.214844 226.5 182.332031 226.125 183.050781 C 225.75 183.929688 224.851562 184.890625 224.023438 185.289062 C 223.273438 185.765625 222.226562 186.085938 221.398438 185.847656 C 220.5 185.527344 219.523438 184.25 218.925781 183.210938 C 218.398438 182.253906 217.648438 180.578125 218.101562 180.019531 C 218.699219 179.378906 222.824219 180.175781 223.949219 181.214844 C 224.773438 181.933594 225.226562 183.453125 225.074219 184.328125 C 224.925781 185.207031 223.949219 186.167969 223.125 186.484375 C 222.300781 186.886719 220.875 186.964844 219.898438 186.484375 C 218.625 185.925781 216.824219 183.691406 216.449219 182.492188 C 216.300781 181.855469 216.449219 181.136719 216.75 180.578125 C 217.050781 180.019531 217.5 179.457031 218.175781 179.300781 C 219.148438 179.058594 221.324219 179.777344 222.300781 180.578125 C 223.125 181.296875 223.726562 182.492188 223.875 183.371094 C 224.101562 184.171875 224.023438 184.96875 223.726562 185.609375 C 223.351562 186.246094 222.449219 187.042969 221.773438 187.125 C 221.101562 187.285156 219.976562 186.886719 219.449219 186.40625 C 219 185.925781 218.699219 184.570312 218.699219 184.570312 "/></clipPath><clipPath id="828a5c3902"><path d="M 0.953125 0.390625 L 13.8125 0.390625 L 13.8125 14.996094 L 0.953125 14.996094 Z M 0.953125 0.390625 "/></clipPath><clipPath id="5a74311e26"><path d="M 5.699219 7.570312 C 5.398438 6.453125 4.425781 7.011719 4.050781 6.691406 C 3.601562 6.371094 3.375 4.933594 3.523438 4.214844 C 3.601562 3.578125 4.050781 2.9375 4.574219 2.617188 C 5.175781 2.21875 6.226562 2.058594 7.050781 2.300781 C 7.949219 2.699219 9.824219 4.535156 9.675781 5.015625 C 9.523438 5.492188 7.050781 5.015625 6.824219 5.492188 C 6.601562 6.050781 8.550781 7.570312 8.398438 8.046875 C 8.175781 8.609375 6.675781 8.6875 5.699219 8.6875 C 4.648438 8.6875 3.148438 8.527344 2.398438 7.96875 C 1.648438 7.410156 1.050781 6.371094 0.976562 5.492188 C 0.898438 4.535156 1.5 3.257812 2.101562 2.457031 C 2.773438 1.582031 3.976562 0.542969 5.023438 0.460938 C 5.925781 0.300781 6.976562 0.941406 7.875 1.421875 C 8.699219 1.980469 10.273438 2.9375 10.199219 3.496094 C 10.125 4.054688 7.726562 4.933594 7.574219 4.773438 C 7.425781 4.613281 8.625 2.859375 9.226562 2.378906 C 9.75 1.980469 10.425781 1.660156 11.023438 1.660156 C 11.550781 1.660156 12.300781 1.980469 12.75 2.378906 C 13.125 2.777344 13.425781 3.335938 13.574219 4.136719 C 13.875 5.8125 13.875 10.203125 12.75 12.042969 C 11.851562 13.558594 9.300781 15.234375 8.324219 14.917969 C 7.574219 14.757812 7.5 13.078125 6.824219 12.28125 C 6.074219 11.480469 4.425781 11.164062 3.898438 10.285156 C 3.449219 9.566406 3.300781 8.367188 3.601562 7.648438 C 3.976562 6.929688 5.25 5.8125 6.074219 5.890625 C 6.976562 5.972656 7.726562 7.808594 8.699219 8.289062 C 9.449219 8.6875 10.726562 8.128906 11.175781 8.6875 C 11.625 9.246094 11.625 11.082031 11.175781 11.882812 C 10.800781 12.519531 9.75 13.078125 9 13.078125 C 8.324219 13.078125 7.199219 12.601562 6.824219 11.882812 C 6.449219 11.164062 6.601562 9.246094 6.976562 8.527344 C 7.273438 7.96875 7.800781 7.648438 8.398438 7.570312 C 9.074219 7.488281 10.199219 7.730469 10.800781 8.207031 C 11.324219 8.765625 11.699219 9.886719 11.625 10.683594 C 11.476562 11.480469 10.800781 12.519531 10.125 12.761719 C 9.375 13.160156 7.648438 12.761719 7.050781 12.121094 C 6.523438 11.5625 6.300781 10.363281 6.449219 9.566406 C 6.601562 8.847656 7.425781 7.890625 8.101562 7.648438 C 8.773438 7.410156 9.976562 7.488281 10.574219 8.046875 C 11.175781 8.609375 11.773438 10.363281 11.476562 11.242188 C 11.175781 12.042969 9.976562 13 9 13.078125 C 7.726562 13.238281 5.175781 11.882812 4.273438 10.761719 C 3.675781 9.964844 3.375 8.527344 3.601562 7.648438 C 3.824219 6.929688 4.726562 6.210938 5.476562 5.972656 C 6.226562 5.734375 7.425781 6.050781 8.324219 6.371094 C 9.226562 6.691406 10.351562 7.171875 10.875 7.96875 C 11.324219 8.6875 11.699219 10.285156 11.25 11.003906 C 10.800781 11.800781 8.175781 12.679688 7.5 12.042969 C 6.523438 11.164062 7.800781 4.453125 8.851562 2.859375 C 9.375 2.058594 10.273438 1.660156 11.023438 1.660156 C 11.773438 1.738281 13.125 2.699219 13.425781 3.496094 C 13.726562 4.214844 13.5 5.332031 13.125 6.050781 C 12.75 6.929688 11.851562 7.890625 11.023438 8.289062 C 10.273438 8.765625 9.226562 9.085938 8.398438 8.847656 C 7.5 8.527344 6.523438 7.25 5.925781 6.210938 C 5.398438 5.253906 4.648438 3.578125 5.101562 3.019531 C 5.699219 2.378906 9.824219 3.175781 10.949219 4.214844 C 11.773438 4.933594 12.226562 6.453125 12.074219 7.328125 C 11.925781 8.207031 10.949219 9.167969 10.125 9.484375 C 9.300781 9.886719 7.875 9.964844 6.898438 9.484375 C 5.625 8.925781 3.824219 6.691406 3.449219 5.492188 C 3.300781 4.855469 3.449219 4.136719 3.75 3.578125 C 4.050781 3.019531 4.5 2.457031 5.175781 2.300781 C 6.148438 2.058594 8.324219 2.777344 9.300781 3.578125 C 10.125 4.296875 10.726562 5.492188 10.875 6.371094 C 11.101562 7.171875 11.023438 7.96875 10.726562 8.609375 C 10.351562 9.246094 9.449219 10.042969 8.773438 10.125 C 8.101562 10.285156 6.976562 9.886719 6.449219 9.40625 C 6 8.925781 5.699219 7.570312 5.699219 7.570312 "/></clipPath><clipPath id="a20e7e746a"><rect x="0" width="14" y="0" height="15"/></clipPath><clipPath id="8afb76e17c"><path d="M 216 186.65625 L 224.667969 186.65625 L 224.667969 198.992188 L 216 198.992188 Z M 216 186.65625 "/></clipPath><clipPath id="d9ecd2d732"><path d="M 221.175781 188.722656 C 224.625 194.789062 224.398438 196.226562 223.800781 196.789062 C 223.199219 197.425781 221.699219 197.746094 220.875 197.265625 C 219.75 196.707031 218.476562 193.511719 218.25 192.074219 C 218.101562 191.199219 218.25 190.398438 218.550781 189.839844 C 218.851562 189.28125 219.375 188.722656 219.976562 188.480469 C 220.5 188.242188 221.25 188.242188 221.773438 188.480469 C 222.375 188.722656 222.824219 189.121094 223.199219 189.839844 C 223.800781 191.039062 224.324219 194.550781 223.949219 196.148438 C 223.648438 197.347656 222.898438 198.625 222.074219 198.941406 C 221.25 199.183594 219.601562 198.382812 219.074219 197.746094 C 218.625 197.105469 218.625 195.828125 218.925781 195.109375 C 219.226562 194.390625 220.125 193.59375 220.875 193.511719 C 221.699219 193.351562 223.351562 194.230469 223.726562 195.03125 C 224.023438 195.828125 223.726562 197.746094 223.050781 198.304688 C 222.449219 198.941406 220.574219 198.941406 219.898438 198.542969 C 219.375 198.304688 219.148438 197.824219 218.851562 197.1875 C 218.398438 195.910156 217.875 192.632812 218.25 191.117188 C 218.550781 190 219.148438 188.800781 219.976562 188.480469 C 220.726562 188.164062 222.300781 188.640625 222.824219 189.28125 C 223.351562 189.917969 222.824219 191.277344 223.125 192.234375 C 223.425781 193.195312 224.625 194.152344 224.625 195.03125 C 224.625 195.667969 224.25 196.386719 223.800781 196.789062 C 223.425781 197.1875 222.824219 197.664062 222.074219 197.585938 C 220.949219 197.425781 218.550781 195.507812 217.5 194.152344 C 216.675781 193.035156 216.226562 191.355469 216.074219 190.320312 C 216 189.519531 216 188.882812 216.226562 188.324219 C 216.601562 187.683594 217.574219 186.886719 218.25 186.726562 C 218.773438 186.644531 219.523438 186.804688 220.050781 187.125 C 220.5 187.523438 221.175781 188.722656 221.175781 188.722656 "/></clipPath><clipPath id="e699f5f89d"><path d="M 0 0.65625 L 8.640625 0.65625 L 8.640625 12.992188 L 0 12.992188 Z M 0 0.65625 "/></clipPath><clipPath id="7d8ce50cfa"><path d="M 5.175781 2.722656 C 8.625 8.789062 8.398438 10.226562 7.800781 10.789062 C 7.199219 11.425781 5.699219 11.746094 4.875 11.265625 C 3.75 10.707031 2.476562 7.511719 2.25 6.074219 C 2.101562 5.199219 2.25 4.398438 2.550781 3.839844 C 2.851562 3.28125 3.375 2.722656 3.976562 2.480469 C 4.5 2.242188 5.25 2.242188 5.773438 2.480469 C 6.375 2.722656 6.824219 3.121094 7.199219 3.839844 C 7.800781 5.039062 8.324219 8.550781 7.949219 10.148438 C 7.648438 11.347656 6.898438 12.625 6.074219 12.941406 C 5.25 13.183594 3.601562 12.382812 3.074219 11.746094 C 2.625 11.105469 2.625 9.828125 2.925781 9.109375 C 3.226562 8.390625 4.125 7.59375 4.875 7.511719 C 5.699219 7.351562 7.351562 8.230469 7.726562 9.03125 C 8.023438 9.828125 7.726562 11.746094 7.050781 12.304688 C 6.449219 12.941406 4.574219 12.941406 3.898438 12.542969 C 3.375 12.304688 3.148438 11.824219 2.851562 11.1875 C 2.398438 9.910156 1.875 6.632812 2.25 5.117188 C 2.550781 4 3.148438 2.800781 3.976562 2.480469 C 4.726562 2.164062 6.300781 2.640625 6.824219 3.28125 C 7.351562 3.917969 6.824219 5.277344 7.125 6.234375 C 7.425781 7.195312 8.625 8.152344 8.625 9.03125 C 8.625 9.667969 8.25 10.386719 7.800781 10.789062 C 7.425781 11.1875 6.824219 11.664062 6.074219 11.585938 C 4.949219 11.425781 2.550781 9.507812 1.5 8.152344 C 0.675781 7.035156 0.226562 5.355469 0.0742188 4.320312 C 0 3.519531 0 2.882812 0.226562 2.324219 C 0.601562 1.683594 1.574219 0.886719 2.25 0.726562 C 2.773438 0.644531 3.523438 0.804688 4.050781 1.125 C 4.5 1.523438 5.175781 2.722656 5.175781 2.722656 "/></clipPath><clipPath id="8e15c92923"><rect x="0" width="9" y="0" height="13"/></clipPath><clipPath id="7e3ce6a33a"><path d="M 216.265625 187.632812 L 225.121094 187.632812 L 225.121094 198.316406 L 216.265625 198.316406 Z M 216.265625 187.632812 "/></clipPath><clipPath id="645ce0fac6"><path d="M 218.101562 193.832031 C 218.398438 191.835938 221.324219 190.796875 222.449219 191.117188 C 223.5 191.515625 224.398438 193.113281 224.773438 194.152344 C 225.074219 195.03125 225.148438 196.070312 224.773438 196.789062 C 224.476562 197.425781 223.5 198.144531 222.75 198.222656 C 222.226562 198.382812 221.398438 198.222656 220.949219 197.824219 C 220.351562 197.1875 220.574219 195.589844 219.976562 194.632812 C 219.226562 193.511719 216.976562 192.792969 216.523438 191.757812 C 216.148438 190.957031 216.300781 189.761719 216.675781 189.121094 C 217.050781 188.480469 218.101562 187.921875 218.773438 187.761719 C 219.375 187.683594 220.050781 188.003906 220.574219 188.402344 C 221.25 188.960938 222.449219 190.558594 222.226562 191.199219 C 222.074219 191.835938 220.050781 192.394531 219.300781 192.316406 C 218.773438 192.234375 218.25 191.835938 218.101562 191.4375 C 217.875 190.796875 218.023438 189.441406 218.476562 188.800781 C 218.925781 188.164062 219.976562 187.683594 220.648438 187.683594 C 221.398438 187.683594 222.449219 188.324219 222.824219 189.042969 C 223.199219 189.761719 223.050781 191.675781 222.523438 192.394531 C 222.074219 192.953125 220.875 193.351562 220.199219 193.273438 C 219.449219 193.113281 218.476562 192.394531 218.175781 191.675781 C 217.875 190.878906 218.25 189.042969 218.851562 188.402344 C 219.375 187.84375 220.574219 187.605469 221.25 187.761719 C 221.925781 188.003906 222.75 188.640625 223.050781 189.519531 C 223.574219 190.957031 223.648438 195.03125 222.75 195.910156 C 221.925781 196.628906 219.75 196.226562 218.699219 195.507812 C 217.648438 194.871094 216.75 192.953125 216.523438 191.757812 C 216.375 190.636719 216.449219 189.199219 217.050781 188.640625 C 217.648438 188.003906 219 187.761719 219.976562 188.003906 C 221.324219 188.402344 223.351562 190.480469 224.175781 191.917969 C 224.851562 193.035156 225.148438 194.390625 225.074219 195.429688 C 225 196.308594 224.550781 197.347656 223.949219 197.746094 C 223.351562 198.222656 222.375 198.382812 221.550781 198.066406 C 220.273438 197.585938 218.398438 195.03125 217.726562 193.59375 C 217.273438 192.554688 216.824219 191.199219 217.273438 190.480469 C 217.875 189.519531 221.25 188.5625 222.226562 189.121094 C 223.125 189.679688 223.351562 192.074219 223.351562 193.195312 C 223.273438 194.152344 223.050781 195.191406 222.449219 195.667969 C 221.773438 196.148438 220.199219 196.308594 219.449219 195.988281 C 218.773438 195.667969 218.101562 193.832031 218.101562 193.832031 "/></clipPath><clipPath id="51d585f670"><path d="M 0.265625 0.632812 L 9.121094 0.632812 L 9.121094 11.316406 L 0.265625 11.316406 Z M 0.265625 0.632812 "/></clipPath><clipPath id="3bfb33d38e"><path d="M 2.101562 6.832031 C 2.398438 4.835938 5.324219 3.796875 6.449219 4.117188 C 7.5 4.515625 8.398438 6.113281 8.773438 7.152344 C 9.074219 8.03125 9.148438 9.070312 8.773438 9.789062 C 8.476562 10.425781 7.5 11.144531 6.75 11.222656 C 6.226562 11.382812 5.398438 11.222656 4.949219 10.824219 C 4.351562 10.1875 4.574219 8.589844 3.976562 7.632812 C 3.226562 6.511719 0.976562 5.792969 0.523438 4.757812 C 0.148438 3.957031 0.300781 2.761719 0.675781 2.121094 C 1.050781 1.480469 2.101562 0.921875 2.773438 0.761719 C 3.375 0.683594 4.050781 1.003906 4.574219 1.402344 C 5.25 1.960938 6.449219 3.558594 6.226562 4.199219 C 6.074219 4.835938 4.050781 5.394531 3.300781 5.316406 C 2.773438 5.234375 2.25 4.835938 2.101562 4.4375 C 1.875 3.796875 2.023438 2.441406 2.476562 1.800781 C 2.925781 1.164062 3.976562 0.683594 4.648438 0.683594 C 5.398438 0.683594 6.449219 1.324219 6.824219 2.042969 C 7.199219 2.761719 7.050781 4.675781 6.523438 5.394531 C 6.074219 5.953125 4.875 6.351562 4.199219 6.273438 C 3.449219 6.113281 2.476562 5.394531 2.175781 4.675781 C 1.875 3.878906 2.25 2.042969 2.851562 1.402344 C 3.375 0.84375 4.574219 0.605469 5.25 0.761719 C 5.925781 1.003906 6.75 1.640625 7.050781 2.519531 C 7.574219 3.957031 7.648438 8.03125 6.75 8.910156 C 5.925781 9.628906 3.75 9.226562 2.699219 8.507812 C 1.648438 7.871094 0.75 5.953125 0.523438 4.757812 C 0.375 3.636719 0.449219 2.199219 1.050781 1.640625 C 1.648438 1.003906 3 0.761719 3.976562 1.003906 C 5.324219 1.402344 7.351562 3.480469 8.175781 4.917969 C 8.851562 6.035156 9.148438 7.390625 9.074219 8.429688 C 9 9.308594 8.550781 10.347656 7.949219 10.746094 C 7.351562 11.222656 6.375 11.382812 5.550781 11.066406 C 4.273438 10.585938 2.398438 8.03125 1.726562 6.59375 C 1.273438 5.554688 0.824219 4.199219 1.273438 3.480469 C 1.875 2.519531 5.25 1.5625 6.226562 2.121094 C 7.125 2.679688 7.351562 5.074219 7.351562 6.195312 C 7.273438 7.152344 7.050781 8.191406 6.449219 8.667969 C 5.773438 9.148438 4.199219 9.308594 3.449219 8.988281 C 2.773438 8.667969 2.101562 6.832031 2.101562 6.832031 "/></clipPath><clipPath id="56333b09c7"><rect x="0" width="10" y="0" height="12"/></clipPath><clipPath id="1a18df4f29"><path d="M 212.917969 174.996094 L 226.171875 174.996094 L 226.171875 184.4375 L 212.917969 184.4375 Z M 212.917969 174.996094 "/></clipPath><clipPath id="2c91ddd429"><path d="M 223.199219 181.214844 C 213.523438 180.097656 213.226562 179.539062 213.074219 178.898438 C 212.925781 178.339844 212.851562 177.542969 213.148438 176.984375 C 213.523438 176.265625 214.574219 175.386719 215.699219 175.226562 C 217.648438 175.066406 223.800781 179.300781 224.175781 178.820312 C 224.398438 178.582031 223.425781 177.621094 223.574219 177.460938 C 223.726562 177.300781 224.925781 177.703125 225.300781 178.179688 C 225.824219 178.820312 226.351562 180.417969 226.050781 181.214844 C 225.75 182.09375 224.398438 183.050781 223.574219 183.050781 C 222.75 183.050781 221.476562 182.015625 221.101562 181.214844 C 220.800781 180.496094 220.949219 179.21875 221.398438 178.660156 C 222 177.941406 223.648438 177.382812 224.476562 177.621094 C 225.148438 177.863281 225.976562 178.820312 226.125 179.539062 C 226.273438 180.417969 225.601562 182.171875 224.851562 182.652344 C 224.25 183.132812 223.050781 183.132812 222.449219 182.734375 C 221.773438 182.414062 221.023438 181.453125 220.949219 180.65625 C 220.949219 179.777344 221.773438 178.101562 222.523438 177.703125 C 223.199219 177.300781 224.699219 177.621094 225.300781 178.179688 C 225.898438 178.738281 226.351562 180.417969 226.050781 181.214844 C 225.75 182.09375 223.726562 182.414062 223.574219 183.050781 C 223.5 183.453125 224.324219 184.171875 224.175781 184.328125 C 223.726562 184.890625 215.851562 181.695312 214.273438 180.496094 C 213.523438 179.9375 213.226562 179.539062 213.074219 178.898438 C 212.925781 178.339844 212.851562 177.542969 213.148438 176.984375 C 213.523438 176.265625 214.5 175.546875 215.699219 175.226562 C 217.726562 174.746094 223.273438 174.988281 224.699219 176.265625 C 225.523438 176.984375 225.824219 178.421875 225.523438 179.300781 C 225.300781 180.097656 223.199219 181.214844 223.199219 181.214844 "/></clipPath><clipPath id="12dfa443be"><path d="M 0.917969 0.996094 L 14.171875 0.996094 L 14.171875 10.4375 L 0.917969 10.4375 Z M 0.917969 0.996094 "/></clipPath><clipPath id="af693abf08"><path d="M 11.199219 7.214844 C 1.523438 6.097656 1.226562 5.539062 1.074219 4.898438 C 0.925781 4.339844 0.851562 3.542969 1.148438 2.984375 C 1.523438 2.265625 2.574219 1.386719 3.699219 1.226562 C 5.648438 1.066406 11.800781 5.300781 12.175781 4.820312 C 12.398438 4.582031 11.425781 3.621094 11.574219 3.460938 C 11.726562 3.300781 12.925781 3.703125 13.300781 4.179688 C 13.824219 4.820312 14.351562 6.417969 14.050781 7.214844 C 13.75 8.09375 12.398438 9.050781 11.574219 9.050781 C 10.75 9.050781 9.476562 8.015625 9.101562 7.214844 C 8.800781 6.496094 8.949219 5.21875 9.398438 4.660156 C 10 3.941406 11.648438 3.382812 12.476562 3.621094 C 13.148438 3.863281 13.976562 4.820312 14.125 5.539062 C 14.273438 6.417969 13.601562 8.171875 12.851562 8.652344 C 12.25 9.132812 11.050781 9.132812 10.449219 8.734375 C 9.773438 8.414062 9.023438 7.453125 8.949219 6.65625 C 8.949219 5.777344 9.773438 4.101562 10.523438 3.703125 C 11.199219 3.300781 12.699219 3.621094 13.300781 4.179688 C 13.898438 4.738281 14.351562 6.417969 14.050781 7.214844 C 13.75 8.09375 11.726562 8.414062 11.574219 9.050781 C 11.5 9.453125 12.324219 10.171875 12.175781 10.328125 C 11.726562 10.890625 3.851562 7.695312 2.273438 6.496094 C 1.523438 5.9375 1.226562 5.539062 1.074219 4.898438 C 0.925781 4.339844 0.851562 3.542969 1.148438 2.984375 C 1.523438 2.265625 2.5 1.546875 3.699219 1.226562 C 5.726562 0.746094 11.273438 0.988281 12.699219 2.265625 C 13.523438 2.984375 13.824219 4.421875 13.523438 5.300781 C 13.300781 6.097656 11.199219 7.214844 11.199219 7.214844 "/></clipPath><clipPath id="a8fa0015a1"><rect x="0" width="15" y="0" height="11"/></clipPath><clipPath id="16939057b3"><path d="M 216.847656 161.050781 L 228.503906 161.050781 L 228.503906 181.480469 L 216.847656 181.480469 Z M 216.847656 161.050781 "/></clipPath><clipPath id="8b30eb6332"><path d="M 225.601562 173.628906 C 225.601562 177.78125 225.148438 178.660156 224.550781 179.21875 C 224.023438 179.699219 223.125 180.097656 222.300781 180.019531 C 221.398438 179.9375 220.125 179.058594 219.601562 178.339844 C 219.226562 177.863281 219.074219 177.382812 219.074219 176.742188 C 219.074219 175.785156 220.273438 174.746094 220.5 173.46875 C 220.726562 171.871094 219.449219 169.316406 219.75 167.878906 C 220.050781 166.761719 220.875 165.644531 221.625 165.164062 C 222.300781 164.765625 223.273438 164.605469 224.023438 164.925781 C 224.851562 165.164062 225.976562 165.964844 226.273438 167.160156 C 226.875 169.15625 224.925781 174.90625 224.324219 176.742188 C 224.023438 177.460938 223.949219 177.863281 223.574219 178.261719 C 223.050781 178.820312 222.148438 179.378906 221.398438 179.457031 C 220.726562 179.539062 219.75 179.300781 219.074219 178.820312 C 218.476562 178.421875 217.875 177.703125 217.726562 176.742188 C 217.425781 174.828125 219.148438 170.117188 220.199219 167.480469 C 221.101562 165.246094 222 162.449219 223.273438 161.570312 C 224.175781 160.933594 225.601562 161.011719 226.425781 161.332031 C 227.175781 161.570312 227.851562 162.210938 228.148438 163.089844 C 228.675781 164.605469 228.300781 167.800781 227.625 169.957031 C 226.800781 172.429688 223.800781 175.144531 223.273438 176.984375 C 223.050781 177.941406 223.574219 178.738281 223.273438 179.457031 C 223.050781 180.097656 222.449219 180.816406 221.773438 181.054688 C 221.023438 181.453125 219.449219 181.453125 218.625 180.976562 C 217.800781 180.496094 216.976562 179.140625 216.898438 178.179688 C 216.824219 177.222656 217.5 175.707031 218.175781 175.066406 C 218.625 174.507812 219.449219 174.269531 220.125 174.269531 C 221.023438 174.347656 222.449219 174.90625 222.976562 175.707031 C 223.574219 176.503906 223.648438 178.179688 223.425781 179.058594 C 223.273438 179.777344 222.675781 180.496094 222.148438 180.894531 C 221.550781 181.296875 220.726562 181.535156 220.050781 181.453125 C 219.375 181.375 218.550781 181.136719 218.023438 180.578125 C 217.425781 179.859375 216.976562 178.5 216.898438 177.382812 C 216.898438 176.34375 217.199219 175.304688 217.648438 174.109375 C 218.398438 172.191406 220.800781 169.238281 221.398438 167.242188 C 221.851562 165.882812 221.476562 164.605469 221.851562 163.566406 C 222.148438 162.769531 222.675781 161.96875 223.273438 161.570312 C 223.949219 161.171875 224.925781 161.011719 225.675781 161.09375 C 226.199219 161.171875 226.726562 161.332031 227.101562 161.730469 C 227.699219 162.371094 228.375 163.40625 228.449219 164.765625 C 228.523438 167.558594 225.449219 175.386719 224.023438 177.542969 C 223.425781 178.5 222.824219 178.898438 222.226562 179.21875 C 221.699219 179.457031 221.175781 179.539062 220.648438 179.457031 C 219.976562 179.300781 219 178.738281 218.476562 178.261719 C 218.101562 177.863281 217.875 177.382812 217.726562 176.742188 C 217.574219 175.625 217.949219 173.789062 218.25 172.191406 C 218.625 170.515625 219.300781 168.277344 219.976562 167 C 220.5 166.203125 220.949219 165.484375 221.625 165.164062 C 222.300781 164.765625 223.273438 164.683594 224.023438 164.925781 C 224.699219 165.085938 225.449219 165.5625 225.898438 166.363281 C 226.800781 167.640625 227.625 170.675781 227.398438 172.75 C 227.175781 174.90625 225.824219 178.101562 224.550781 179.21875 C 223.726562 179.9375 222.375 180.097656 221.550781 179.859375 C 220.726562 179.699219 220.050781 179.140625 219.601562 178.339844 C 219 177.222656 218.699219 174.746094 218.851562 173.390625 C 219.074219 172.511719 219.523438 171.710938 220.050781 171.234375 C 220.5 170.753906 220.949219 170.515625 221.476562 170.433594 C 222.148438 170.355469 223.199219 170.355469 223.875 170.835938 C 224.625 171.3125 225.601562 173.628906 225.601562 173.628906 "/></clipPath><clipPath id="e10ebaa724"><path d="M 0.847656 0.0507812 L 12.503906 0.0507812 L 12.503906 20.480469 L 0.847656 20.480469 Z M 0.847656 0.0507812 "/></clipPath><clipPath id="9b78c3ee27"><path d="M 9.601562 12.628906 C 9.601562 16.78125 9.148438 17.660156 8.550781 18.21875 C 8.023438 18.699219 7.125 19.097656 6.300781 19.019531 C 5.398438 18.9375 4.125 18.058594 3.601562 17.339844 C 3.226562 16.863281 3.074219 16.382812 3.074219 15.742188 C 3.074219 14.785156 4.273438 13.746094 4.5 12.46875 C 4.726562 10.871094 3.449219 8.316406 3.75 6.878906 C 4.050781 5.761719 4.875 4.644531 5.625 4.164062 C 6.300781 3.765625 7.273438 3.605469 8.023438 3.925781 C 8.851562 4.164062 9.976562 4.964844 10.273438 6.160156 C 10.875 8.15625 8.925781 13.90625 8.324219 15.742188 C 8.023438 16.460938 7.949219 16.863281 7.574219 17.261719 C 7.050781 17.820312 6.148438 18.378906 5.398438 18.457031 C 4.726562 18.539062 3.75 18.300781 3.074219 17.820312 C 2.476562 17.421875 1.875 16.703125 1.726562 15.742188 C 1.425781 13.828125 3.148438 9.117188 4.199219 6.480469 C 5.101562 4.246094 6 1.449219 7.273438 0.570312 C 8.175781 -0.0664062 9.601562 0.0117188 10.425781 0.332031 C 11.175781 0.570312 11.851562 1.210938 12.148438 2.089844 C 12.675781 3.605469 12.300781 6.800781 11.625 8.957031 C 10.800781 11.429688 7.800781 14.144531 7.273438 15.984375 C 7.050781 16.941406 7.574219 17.738281 7.273438 18.457031 C 7.050781 19.097656 6.449219 19.816406 5.773438 20.054688 C 5.023438 20.453125 3.449219 20.453125 2.625 19.976562 C 1.800781 19.496094 0.976562 18.140625 0.898438 17.179688 C 0.824219 16.222656 1.5 14.707031 2.175781 14.066406 C 2.625 13.507812 3.449219 13.269531 4.125 13.269531 C 5.023438 13.347656 6.449219 13.90625 6.976562 14.707031 C 7.574219 15.503906 7.648438 17.179688 7.425781 18.058594 C 7.273438 18.777344 6.675781 19.496094 6.148438 19.894531 C 5.550781 20.296875 4.726562 20.535156 4.050781 20.453125 C 3.375 20.375 2.550781 20.136719 2.023438 19.578125 C 1.425781 18.859375 0.976562 17.5 0.898438 16.382812 C 0.898438 15.34375 1.199219 14.304688 1.648438 13.109375 C 2.398438 11.191406 4.800781 8.238281 5.398438 6.242188 C 5.851562 4.882812 5.476562 3.605469 5.851562 2.566406 C 6.148438 1.769531 6.675781 0.96875 7.273438 0.570312 C 7.949219 0.171875 8.925781 0.0117188 9.675781 0.09375 C 10.199219 0.171875 10.726562 0.332031 11.101562 0.730469 C 11.699219 1.371094 12.375 2.40625 12.449219 3.765625 C 12.523438 6.558594 9.449219 14.386719 8.023438 16.542969 C 7.425781 17.5 6.824219 17.898438 6.226562 18.21875 C 5.699219 18.457031 5.175781 18.539062 4.648438 18.457031 C 3.976562 18.300781 3 17.738281 2.476562 17.261719 C 2.101562 16.863281 1.875 16.382812 1.726562 15.742188 C 1.574219 14.625 1.949219 12.789062 2.25 11.191406 C 2.625 9.515625 3.300781 7.277344 3.976562 6 C 4.5 5.203125 4.949219 4.484375 5.625 4.164062 C 6.300781 3.765625 7.273438 3.683594 8.023438 3.925781 C 8.699219 4.085938 9.449219 4.5625 9.898438 5.363281 C 10.800781 6.640625 11.625 9.675781 11.398438 11.75 C 11.175781 13.90625 9.824219 17.101562 8.550781 18.21875 C 7.726562 18.9375 6.375 19.097656 5.550781 18.859375 C 4.726562 18.699219 4.050781 18.140625 3.601562 17.339844 C 3 16.222656 2.699219 13.746094 2.851562 12.390625 C 3.074219 11.511719 3.523438 10.710938 4.050781 10.234375 C 4.5 9.753906 4.949219 9.515625 5.476562 9.433594 C 6.148438 9.355469 7.199219 9.355469 7.875 9.835938 C 8.625 10.3125 9.601562 12.628906 9.601562 12.628906 "/></clipPath><clipPath id="f0c4538564"><rect x="0" width="13" y="0" height="21"/></clipPath><clipPath id="57c8f84581"><path d="M 218.609375 176.433594 L 225.097656 176.433594 L 225.097656 183.351562 L 218.609375 183.351562 Z M 218.609375 176.433594 "/></clipPath><clipPath id="41e4615c07"><path d="M 225.074219 178.898438 C 224.175781 182.652344 223.800781 183.050781 223.199219 183.210938 C 222.449219 183.453125 220.875 183.371094 220.125 183.050781 C 219.601562 182.734375 219.226562 182.332031 218.925781 181.773438 C 218.625 180.976562 218.550781 179.300781 218.773438 178.5 C 218.925781 177.863281 219.300781 177.460938 219.75 177.144531 C 220.5 176.664062 222.074219 176.34375 222.824219 176.503906 C 223.425781 176.582031 224.25 177.382812 224.25 177.382812 "/></clipPath><clipPath id="4a93efcaae"><path d="M 0.609375 0.433594 L 7.097656 0.433594 L 7.097656 7.351562 L 0.609375 7.351562 Z M 0.609375 0.433594 "/></clipPath><clipPath id="b09f35b96f"><path d="M 7.074219 2.898438 C 6.175781 6.652344 5.800781 7.050781 5.199219 7.210938 C 4.449219 7.453125 2.875 7.371094 2.125 7.050781 C 1.601562 6.734375 1.226562 6.332031 0.925781 5.773438 C 0.625 4.976562 0.550781 3.300781 0.773438 2.5 C 0.925781 1.863281 1.300781 1.460938 1.75 1.144531 C 2.5 0.664062 4.074219 0.34375 4.824219 0.503906 C 5.425781 0.582031 6.25 1.382812 6.25 1.382812 "/></clipPath><clipPath id="d605f144e2"><rect x="0" width="8" y="0" height="8"/></clipPath><clipPath id="e402ba7f97"><path d="M 217.484375 175.234375 L 223.972656 175.234375 L 223.972656 182.152344 L 217.484375 182.152344 Z M 217.484375 175.234375 "/></clipPath><clipPath id="3897274ebe"><path d="M 223.949219 177.703125 C 223.050781 181.453125 222.675781 181.855469 222.074219 182.015625 C 221.324219 182.253906 219.75 182.171875 219 181.855469 C 218.476562 181.535156 218.101562 181.136719 217.800781 180.578125 C 217.5 179.777344 217.425781 178.101562 217.648438 177.300781 C 217.800781 176.664062 218.175781 176.265625 218.625 175.945312 C 219.375 175.464844 220.949219 175.144531 221.699219 175.304688 C 222.300781 175.386719 223.125 176.183594 223.125 176.183594 "/></clipPath><clipPath id="63ee27418d"><path d="M 0.484375 0.234375 L 6.972656 0.234375 L 6.972656 7.152344 L 0.484375 7.152344 Z M 0.484375 0.234375 "/></clipPath><clipPath id="4a36baa054"><path d="M 6.949219 2.703125 C 6.050781 6.453125 5.675781 6.855469 5.074219 7.015625 C 4.324219 7.253906 2.75 7.171875 2 6.855469 C 1.476562 6.535156 1.101562 6.136719 0.800781 5.578125 C 0.5 4.777344 0.425781 3.101562 0.648438 2.300781 C 0.800781 1.664062 1.175781 1.265625 1.625 0.945312 C 2.375 0.464844 3.949219 0.144531 4.699219 0.304688 C 5.300781 0.386719 6.125 1.183594 6.125 1.183594 "/></clipPath><clipPath id="e71f574385"><rect x="0" width="7" y="0" height="8"/></clipPath><clipPath id="e8567bb86e"><path d="M 218.835938 177.757812 L 225.320312 177.757812 L 225.320312 184.726562 L 218.835938 184.726562 Z M 218.835938 177.757812 "/></clipPath><clipPath id="4067ae1f02"><path d="M 225.300781 180.257812 C 224.398438 184.011719 224.023438 184.410156 223.425781 184.570312 C 222.675781 184.808594 221.101562 184.730469 220.351562 184.410156 C 219.824219 184.089844 219.449219 183.691406 219.148438 183.132812 C 218.851562 182.332031 218.773438 180.65625 219 179.859375 C 219.148438 179.21875 219.601562 178.820312 219.976562 178.5 C 220.425781 178.101562 220.875 177.78125 221.476562 177.78125 C 222.300781 177.703125 224.476562 178.738281 224.476562 178.738281 "/></clipPath><clipPath id="aa7c9b6c21"><path d="M 0.835938 0.757812 L 7.320312 0.757812 L 7.320312 7.726562 L 0.835938 7.726562 Z M 0.835938 0.757812 "/></clipPath><clipPath id="75b86c2be9"><path d="M 7.300781 3.257812 C 6.398438 7.011719 6.023438 7.410156 5.425781 7.570312 C 4.675781 7.808594 3.101562 7.730469 2.351562 7.410156 C 1.824219 7.089844 1.449219 6.691406 1.148438 6.132812 C 0.851562 5.332031 0.773438 3.65625 1 2.859375 C 1.148438 2.21875 1.601562 1.820312 1.976562 1.5 C 2.425781 1.101562 2.875 0.78125 3.476562 0.78125 C 4.300781 0.703125 6.476562 1.738281 6.476562 1.738281 "/></clipPath><clipPath id="fdde54346e"><rect x="0" width="8" y="0" height="8"/></clipPath><clipPath id="55475b64fe"><path d="M 217.035156 176.320312 L 223.519531 176.320312 L 223.519531 183.289062 L 217.035156 183.289062 Z M 217.035156 176.320312 "/></clipPath><clipPath id="9f5c827fb2"><path d="M 223.5 178.820312 C 222.601562 182.574219 222.226562 182.972656 221.625 183.132812 C 220.875 183.371094 219.300781 183.292969 218.550781 182.972656 C 218.023438 182.652344 217.648438 182.253906 217.351562 181.695312 C 217.050781 180.894531 216.976562 179.21875 217.199219 178.421875 C 217.351562 177.78125 217.800781 177.382812 218.175781 177.0625 C 218.625 176.664062 219.074219 176.34375 219.675781 176.34375 C 220.5 176.265625 222.675781 177.300781 222.675781 177.300781 "/></clipPath><clipPath id="df2fb3863d"><path d="M 0.0351562 0.320312 L 6.519531 0.320312 L 6.519531 7.289062 L 0.0351562 7.289062 Z M 0.0351562 0.320312 "/></clipPath><clipPath id="4c122916ba"><path d="M 6.5 2.820312 C 5.601562 6.574219 5.226562 6.972656 4.625 7.132812 C 3.875 7.371094 2.300781 7.292969 1.550781 6.972656 C 1.023438 6.652344 0.648438 6.253906 0.351562 5.695312 C 0.0507812 4.894531 -0.0234375 3.21875 0.199219 2.421875 C 0.351562 1.78125 0.800781 1.382812 1.175781 1.0625 C 1.625 0.664062 2.074219 0.34375 2.675781 0.34375 C 3.5 0.265625 5.675781 1.300781 5.675781 1.300781 "/></clipPath><clipPath id="31daac6f48"><rect x="0" width="7" y="0" height="8"/></clipPath><clipPath id="61821974bc"><path d="M 216.585938 174.964844 L 223.070312 174.964844 L 223.070312 181.929688 L 216.585938 181.929688 Z M 216.585938 174.964844 "/></clipPath><clipPath id="37a1e169fe"><path d="M 223.050781 177.460938 C 222.148438 181.214844 221.773438 181.613281 221.175781 181.773438 C 220.425781 182.015625 218.851562 181.933594 218.101562 181.613281 C 217.574219 181.296875 217.199219 180.894531 216.898438 180.335938 C 216.601562 179.539062 216.523438 177.863281 216.75 177.0625 C 216.898438 176.425781 217.351562 176.023438 217.726562 175.707031 C 218.175781 175.304688 218.625 174.988281 219.226562 174.988281 C 220.050781 174.90625 222.226562 175.945312 222.226562 175.945312 "/></clipPath><clipPath id="2a9ceead68"><path d="M 0.585938 0.964844 L 7.070312 0.964844 L 7.070312 7.929688 L 0.585938 7.929688 Z M 0.585938 0.964844 "/></clipPath><clipPath id="393ff3560b"><path d="M 7.050781 3.460938 C 6.148438 7.214844 5.773438 7.613281 5.175781 7.773438 C 4.425781 8.015625 2.851562 7.933594 2.101562 7.613281 C 1.574219 7.296875 1.199219 6.894531 0.898438 6.335938 C 0.601562 5.539062 0.523438 3.863281 0.75 3.0625 C 0.898438 2.425781 1.351562 2.023438 1.726562 1.707031 C 2.175781 1.304688 2.625 0.988281 3.226562 0.988281 C 4.050781 0.90625 6.226562 1.945312 6.226562 1.945312 "/></clipPath><clipPath id="0eae2a39b9"><rect x="0" width="8" y="0" height="8"/></clipPath><clipPath id="be59c7a743"><path d="M 232.621094 199.339844 L 238.515625 199.339844 L 238.515625 205.144531 L 232.621094 205.144531 Z M 232.621094 199.339844 "/></clipPath><clipPath id="992921432e"><path d="M 238.5 201.394531 C 237.75 204.621094 237.375 204.84375 236.851562 204.996094 C 236.175781 205.21875 234.75 205.144531 234.074219 204.84375 C 233.625 204.621094 233.324219 204.246094 233.101562 203.871094 C 232.875 203.421875 232.648438 202.96875 232.648438 202.445312 C 232.726562 201.769531 233.25 200.421875 233.773438 199.96875 C 234.148438 199.59375 234.601562 199.371094 235.125 199.371094 C 235.800781 199.296875 237.75 200.195312 237.75 200.195312 "/></clipPath><clipPath id="1af269e161"><path d="M 232.621094 207.441406 L 238.515625 207.441406 L 238.515625 213.246094 L 232.621094 213.246094 Z M 232.621094 207.441406 "/></clipPath><clipPath id="972475e87d"><path d="M 238.5 209.496094 C 237.75 212.71875 237.375 212.945312 236.851562 213.09375 C 236.175781 213.320312 234.75 213.246094 234.074219 212.945312 C 233.625 212.71875 233.324219 212.34375 233.101562 211.96875 C 232.875 211.519531 232.648438 211.070312 232.648438 210.546875 C 232.726562 209.871094 233.25 208.519531 233.773438 208.070312 C 234.148438 207.695312 234.601562 207.46875 235.125 207.46875 C 235.800781 207.394531 237.75 208.296875 237.75 208.296875 "/></clipPath><clipPath id="5164030d74"><path d="M 0.621094 0.441406 L 6.515625 0.441406 L 6.515625 6.246094 L 0.621094 6.246094 Z M 0.621094 0.441406 "/></clipPath><clipPath id="95f222e3fc"><path d="M 6.5 2.496094 C 5.75 5.71875 5.375 5.945312 4.851562 6.09375 C 4.175781 6.320312 2.75 6.246094 2.074219 5.945312 C 1.625 5.71875 1.324219 5.34375 1.101562 4.96875 C 0.875 4.519531 0.648438 4.070312 0.648438 3.546875 C 0.726562 2.871094 1.25 1.519531 1.773438 1.070312 C 2.148438 0.695312 2.601562 0.46875 3.125 0.46875 C 3.800781 0.394531 5.75 1.296875 5.75 1.296875 "/></clipPath><clipPath id="db0c50fbc4"><rect x="0" width="7" y="0" height="7"/></clipPath><clipPath id="51547cdaa6"><path d="M 232.546875 217.265625 L 238.441406 217.265625 L 238.441406 223.070312 L 232.546875 223.070312 Z M 232.546875 217.265625 "/></clipPath><clipPath id="00f2eeb81a"><path d="M 238.425781 219.320312 C 237.675781 222.546875 237.300781 222.769531 236.773438 222.921875 C 236.101562 223.144531 234.675781 223.070312 234 222.769531 C 233.550781 222.546875 233.25 222.171875 233.023438 221.796875 C 232.800781 221.34375 232.574219 220.894531 232.574219 220.371094 C 232.648438 219.695312 233.175781 218.34375 233.699219 217.894531 C 234.074219 217.519531 234.523438 217.296875 235.050781 217.296875 C 235.726562 217.21875 237.675781 218.121094 237.675781 218.121094 "/></clipPath><clipPath id="0187a848c4"><path d="M 0.558594 0.265625 L 6.441406 0.265625 L 6.441406 6.070312 L 0.558594 6.070312 Z M 0.558594 0.265625 "/></clipPath><clipPath id="ec4f37deaf"><path d="M 6.425781 2.320312 C 5.675781 5.546875 5.300781 5.769531 4.773438 5.921875 C 4.101562 6.144531 2.675781 6.070312 2 5.769531 C 1.550781 5.546875 1.25 5.171875 1.023438 4.796875 C 0.800781 4.34375 0.574219 3.894531 0.574219 3.371094 C 0.648438 2.695312 1.175781 1.34375 1.699219 0.894531 C 2.074219 0.519531 2.523438 0.296875 3.050781 0.296875 C 3.726562 0.21875 5.675781 1.121094 5.675781 1.121094 "/></clipPath><clipPath id="f818885dfc"><rect x="0" width="7" y="0" height="7"/></clipPath><clipPath id="54aaaa67fc"><path d="M 169.890625 159.230469 L 204 159.230469 L 204 226.730469 L 169.890625 226.730469 Z M 169.890625 159.230469 "/></clipPath><clipPath id="0c4fef9759"><path d="M 171 160 L 205.140625 160 L 205.140625 226.730469 L 171 226.730469 Z M 171 160 "/></clipPath></defs><g id="2c840d3d51"><rect x="0" width="375" y="0" height="374.999991" style="fill:#ffffff;fill-opacity:1;stroke:none;"/><rect x="0" width="375" y="0" height="374.999991" style="fill:#ee7a1b;fill-opacity:1;stroke:none;"/><g clip-rule="nonzero" clip-path="url(#d29901f6cd)"><g clip-rule="nonzero" clip-path="url(#6ad755387f)"><path style=" stroke:none;fill-rule:nonzero;fill:#2f381d;fill-opacity:1;" d="M 142.464844 189.246094 L 154.765625 189.246094 L 154.765625 233.59375 L 142.464844 233.59375 Z M 142.464844 189.246094 "/></g></g><g clip-rule="nonzero" clip-path="url(#49f590732e)"><g clip-rule="nonzero" clip-path="url(#2d69dce131)"><path style=" stroke:none;fill-rule:nonzero;fill:#2f381d;fill-opacity:1;" d="M 132.640625 151.894531 L 165.789062 151.894531 L 165.789062 199.9375 L 132.640625 199.9375 Z M 132.640625 151.894531 "/></g></g><g clip-rule="nonzero" clip-path="url(#bb91ad1eac)"><g clip-rule="nonzero" clip-path="url(#1382baf7a5)"><path style=" stroke:none;fill-rule:nonzero;fill:#2f381d;fill-opacity:1;" d="M 143.992188 162.996094 L 153.238281 162.996094 L 153.238281 183.292969 L 143.992188 183.292969 Z M 143.992188 162.996094 "/></g></g><g clip-rule="nonzero" clip-path="url(#30128ce3f4)"><g clip-rule="nonzero" clip-path="url(#0345ff13f6)"><path style=" stroke:none;fill-rule:nonzero;fill:#2f381d;fill-opacity:1;" d="M 133.015625 196.371094 L 144.945312 196.371094 L 144.945312 208.070312 L 133.015625 208.070312 Z M 133.015625 196.371094 "/></g></g><g clip-rule="nonzero" clip-path="url(#649be4410e)"><g clip-rule="nonzero" clip-path="url(#bc2ce5cbe0)"><g mask="url(#ba641d267a)" transform="matrix(1,0,0,1,136,207)"><g clip-path="url(#5a617fd1f8)"><g clip-rule="nonzero" clip-path="url(#100ab644af)"><g clip-rule="nonzero" clip-path="url(#02331f7b91)"><rect x="0" width="6" height="7" y="0" style="fill:#2f381d;fill-opacity:1;stroke:none;"/></g></g></g><mask id="ba641d267a"><g filter="url(#1d152e56d1)"><rect x="0" width="375" y="0" height="374.999991" style="fill:#000000;fill-opacity:0.66;stroke:none;"/></g></mask></g></g></g><g clip-rule="nonzero" clip-path="url(#6485349ef2)"><g clip-rule="nonzero" clip-path="url(#5751692a7c)"><g mask="url(#89ae773e5b)" transform="matrix(1,0,0,1,135,217)"><g clip-path="url(#15e62c90b3)"><g clip-rule="nonzero" clip-path="url(#bedf645c76)"><g clip-rule="nonzero" clip-path="url(#6019e3d7e8)"><rect x="0" width="7" height="7" y="0" style="fill:#2f381d;fill-opacity:1;stroke:none;"/></g></g></g><mask id="89ae773e5b"><g filter="url(#1d152e56d1)"><rect x="0" width="375" y="0" height="374.999991" style="fill:#000000;fill-opacity:0.31;stroke:none;"/></g></mask></g></g></g><g clip-rule="nonzero" clip-path="url(#a7767a1dac)"><g clip-rule="nonzero" clip-path="url(#176e6273ea)"><path style=" stroke:none;fill-rule:nonzero;fill:#2f381d;fill-opacity:1;" d="M 220.121094 186.667969 L 232.421875 186.667969 L 232.421875 233.5625 L 220.121094 233.5625 Z M 220.121094 186.667969 "/></g></g><g clip-rule="nonzero" clip-path="url(#fdcf2a7dcb)"><g clip-rule="nonzero" clip-path="url(#b72a648066)"><path style=" stroke:none;fill-rule:nonzero;fill:#2f381d;fill-opacity:1;" d="M 209.773438 156.621094 L 231.601562 156.621094 L 231.601562 205.8125 L 209.773438 205.8125 Z M 209.773438 156.621094 "/></g></g><g clip-rule="nonzero" clip-path="url(#aad2a7908a)"><g clip-rule="nonzero" clip-path="url(#7accc8aadf)"><g mask="url(#3856452608)" transform="matrix(1,0,0,1,217,165)"><g clip-path="url(#a5781bb66f)"><g clip-rule="nonzero" clip-path="url(#2efff83187)"><g clip-rule="nonzero" clip-path="url(#2e99610afa)"><rect x="0" width="11" height="16" y="0" style="fill:#2f381d;fill-opacity:1;stroke:none;"/></g></g></g><mask id="3856452608"><g filter="url(#1d152e56d1)"><rect x="0" width="375" y="0" height="374.999991" style="fill:#000000;fill-opacity:0.87;stroke:none;"/></g></mask></g></g></g><g clip-rule="nonzero" clip-path="url(#b2526c3916)"><g clip-rule="nonzero" clip-path="url(#f9a27202fb)"><g mask="url(#72e703f601)" transform="matrix(1,0,0,1,213,177)"><g clip-path="url(#a20e7e746a)"><g clip-rule="nonzero" clip-path="url(#828a5c3902)"><g clip-rule="nonzero" clip-path="url(#5a74311e26)"><rect x="0" width="14" height="15" y="0" style="fill:#2f381d;fill-opacity:1;stroke:none;"/></g></g></g><mask id="72e703f601"><g filter="url(#1d152e56d1)"><rect x="0" width="375" y="0" height="374.999991" style="fill:#000000;fill-opacity:0.74;stroke:none;"/></g></mask></g></g></g><g clip-rule="nonzero" clip-path="url(#8afb76e17c)"><g clip-rule="nonzero" clip-path="url(#d9ecd2d732)"><g mask="url(#61837c3210)" transform="matrix(1,0,0,1,216,186)"><g clip-path="url(#8e15c92923)"><g clip-rule="nonzero" clip-path="url(#e699f5f89d)"><g clip-rule="nonzero" clip-path="url(#7d8ce50cfa)"><rect x="0" width="9" height="13" y="0" style="fill:#2f381d;fill-opacity:1;stroke:none;"/></g></g></g><mask id="61837c3210"><g filter="url(#1d152e56d1)"><rect x="0" width="375" y="0" height="374.999991" style="fill:#000000;fill-opacity:0.15;stroke:none;"/></g></mask></g></g></g><g clip-rule="nonzero" clip-path="url(#7e3ce6a33a)"><g clip-rule="nonzero" clip-path="url(#645ce0fac6)"><g mask="url(#0e3c50c4bb)" transform="matrix(1,0,0,1,216,187)"><g clip-path="url(#56333b09c7)"><g clip-rule="nonzero" clip-path="url(#51d585f670)"><g clip-rule="nonzero" clip-path="url(#3bfb33d38e)"><rect x="0" width="10" height="12" y="0" style="fill:#2f381d;fill-opacity:1;stroke:none;"/></g></g></g><mask id="0e3c50c4bb"><g filter="url(#1d152e56d1)"><rect x="0" width="375" y="0" height="374.999991" style="fill:#000000;fill-opacity:0.12;stroke:none;"/></g></mask></g></g></g><g clip-rule="nonzero" clip-path="url(#1a18df4f29)"><g clip-rule="nonzero" clip-path="url(#2c91ddd429)"><g mask="url(#a21150d3a4)" transform="matrix(1,0,0,1,212,174)"><g clip-path="url(#a8fa0015a1)"><g clip-rule="nonzero" clip-path="url(#12dfa443be)"><g clip-rule="nonzero" clip-path="url(#af693abf08)"><rect x="0" width="15" height="11" y="0" style="fill:#2f381d;fill-opacity:1;stroke:none;"/></g></g></g><mask id="a21150d3a4"><g filter="url(#1d152e56d1)"><rect x="0" width="375" y="0" height="374.999991" style="fill:#000000;fill-opacity:0.12;stroke:none;"/></g></mask></g></g></g><g clip-rule="nonzero" clip-path="url(#16939057b3)"><g clip-rule="nonzero" clip-path="url(#8b30eb6332)"><g mask="url(#f5d8cac55d)" transform="matrix(1,0,0,1,216,161)"><g clip-path="url(#f0c4538564)"><g clip-rule="nonzero" clip-path="url(#e10ebaa724)"><g clip-rule="nonzero" clip-path="url(#9b78c3ee27)"><rect x="0" width="13" height="21" y="0" style="fill:#2f381d;fill-opacity:1;stroke:none;"/></g></g></g><mask id="f5d8cac55d"><g filter="url(#1d152e56d1)"><rect x="0" width="375" y="0" height="374.999991" style="fill:#000000;fill-opacity:0.8;stroke:none;"/></g></mask></g></g></g><g clip-rule="nonzero" clip-path="url(#57c8f84581)"><g clip-rule="nonzero" clip-path="url(#41e4615c07)"><g mask="url(#8a321fda33)" transform="matrix(1,0,0,1,218,176)"><g clip-path="url(#d605f144e2)"><g clip-rule="nonzero" clip-path="url(#4a93efcaae)"><g clip-rule="nonzero" clip-path="url(#b09f35b96f)"><rect x="0" width="8" height="8" y="0" style="fill:#2f381d;fill-opacity:1;stroke:none;"/></g></g></g><mask id="8a321fda33"><g filter="url(#1d152e56d1)"><rect x="0" width="375" y="0" height="374.999991" style="fill:#000000;fill-opacity:0.8;stroke:none;"/></g></mask></g></g></g><g clip-rule="nonzero" clip-path="url(#e402ba7f97)"><g clip-rule="nonzero" clip-path="url(#3897274ebe)"><g mask="url(#651d144373)" transform="matrix(1,0,0,1,217,175)"><g clip-path="url(#e71f574385)"><g clip-rule="nonzero" clip-path="url(#63ee27418d)"><g clip-rule="nonzero" clip-path="url(#4a36baa054)"><rect x="0" width="7" height="8" y="0" style="fill:#2f381d;fill-opacity:1;stroke:none;"/></g></g></g><mask id="651d144373"><g filter="url(#1d152e56d1)"><rect x="0" width="375" y="0" height="374.999991" style="fill:#000000;fill-opacity:0.8;stroke:none;"/></g></mask></g></g></g><g clip-rule="nonzero" clip-path="url(#e8567bb86e)"><g clip-rule="nonzero" clip-path="url(#4067ae1f02)"><g mask="url(#6e3b1adae2)" transform="matrix(1,0,0,1,218,177)"><g clip-path="url(#fdde54346e)"><g clip-rule="nonzero" clip-path="url(#aa7c9b6c21)"><g clip-rule="nonzero" clip-path="url(#75b86c2be9)"><rect x="0" width="8" height="8" y="0" style="fill:#2f381d;fill-opacity:1;stroke:none;"/></g></g></g><mask id="6e3b1adae2"><g filter="url(#1d152e56d1)"><rect x="0" width="375" y="0" height="374.999991" style="fill:#000000;fill-opacity:0.8;stroke:none;"/></g></mask></g></g></g><g clip-rule="nonzero" clip-path="url(#55475b64fe)"><g clip-rule="nonzero" clip-path="url(#9f5c827fb2)"><g mask="url(#9461f7dbd8)" transform="matrix(1,0,0,1,217,176)"><g clip-path="url(#31daac6f48)"><g clip-rule="nonzero" clip-path="url(#df2fb3863d)"><g clip-rule="nonzero" clip-path="url(#4c122916ba)"><rect x="0" width="7" height="8" y="0" style="fill:#2f381d;fill-opacity:1;stroke:none;"/></g></g></g><mask id="9461f7dbd8"><g filter="url(#1d152e56d1)"><rect x="0" width="375" y="0" height="374.999991" style="fill:#000000;fill-opacity:0.8;stroke:none;"/></g></mask></g></g></g><g clip-rule="nonzero" clip-path="url(#61821974bc)"><g clip-rule="nonzero" clip-path="url(#37a1e169fe)"><g mask="url(#7514a29cba)" transform="matrix(1,0,0,1,216,174)"><g clip-path="url(#0eae2a39b9)"><g clip-rule="nonzero" clip-path="url(#2a9ceead68)"><g clip-rule="nonzero" clip-path="url(#393ff3560b)"><rect x="0" width="8" height="8" y="0" style="fill:#2f381d;fill-opacity:1;stroke:none;"/></g></g></g><mask id="7514a29cba"><g filter="url(#1d152e56d1)"><rect x="0" width="375" y="0" height="374.999991" style="fill:#000000;fill-opacity:0.8;stroke:none;"/></g></mask></g></g></g><g clip-rule="nonzero" clip-path="url(#be59c7a743)"><g clip-rule="nonzero" clip-path="url(#992921432e)"><path style=" stroke:none;fill-rule:nonzero;fill:#2f381d;fill-opacity:1;" d="M 229.648438 196.371094 L 241.578125 196.371094 L 241.578125 208.070312 L 229.648438 208.070312 Z M 229.648438 196.371094 "/></g></g><g clip-rule="nonzero" clip-path="url(#1af269e161)"><g clip-rule="nonzero" clip-path="url(#972475e87d)"><g mask="url(#557bf9169a)" transform="matrix(1,0,0,1,232,207)"><g clip-path="url(#db0c50fbc4)"><g clip-rule="nonzero" clip-path="url(#5164030d74)"><g clip-rule="nonzero" clip-path="url(#95f222e3fc)"><rect x="0" width="7" height="7" y="0" style="fill:#2f381d;fill-opacity:1;stroke:none;"/></g></g></g><mask id="557bf9169a"><g filter="url(#1d152e56d1)"><rect x="0" width="375" y="0" height="374.999991" style="fill:#000000;fill-opacity:0.66;stroke:none;"/></g></mask></g></g></g><g clip-rule="nonzero" clip-path="url(#51547cdaa6)"><g clip-rule="nonzero" clip-path="url(#00f2eeb81a)"><g mask="url(#0ad150e916)" transform="matrix(1,0,0,1,232,217)"><g clip-path="url(#f818885dfc)"><g clip-rule="nonzero" clip-path="url(#0187a848c4)"><g clip-rule="nonzero" clip-path="url(#ec4f37deaf)"><rect x="0" width="7" height="7" y="0" style="fill:#2f381d;fill-opacity:1;stroke:none;"/></g></g></g><mask id="0ad150e916"><g filter="url(#1d152e56d1)"><rect x="0" width="375" y="0" height="374.999991" style="fill:#000000;fill-opacity:0.31;stroke:none;"/></g></mask></g></g></g><g clip-rule="nonzero" clip-path="url(#54aaaa67fc)"><path style=" stroke:none;fill-rule:nonzero;fill:#2f381d;fill-opacity:1;" d="M 202.960938 221.480469 L 202.960938 218.429688 L 169.890625 218.429688 L 169.890625 221.707031 C 169.890625 224.445312 172.113281 226.671875 174.851562 226.671875 L 197.753906 226.671875 C 200.628906 226.671875 202.960938 224.351562 202.960938 221.480469 Z M 198.078125 159.261719 L 175.824219 159.261719 C 172.652344 159.261719 170.078125 161.835938 170.078125 165.007812 L 170.078125 166.761719 L 203.148438 166.761719 L 203.148438 164.332031 C 203.148438 161.527344 200.871094 159.261719 198.078125 159.261719 Z M 202.960938 216.921875 L 170.078125 216.921875 L 170.078125 168.082031 L 202.945312 168.082031 L 202.945312 216.921875 L 202.960938 216.921875 "/></g><path style=" stroke:none;fill-rule:nonzero;fill:#ee7a1b;fill-opacity:1;" d="M 188.246094 220.144531 C 187.21875 220.144531 186.382812 220.96875 186.382812 221.964844 C 186.382812 222.964844 187.21875 223.785156 188.246094 223.785156 C 189.269531 223.785156 190.105469 222.964844 190.105469 221.964844 C 190.105469 220.96875 189.269531 220.144531 188.246094 220.144531 Z M 194.113281 163.660156 L 194.113281 163.199219 C 194.113281 163.089844 194.03125 163.011719 193.921875 163.011719 L 183.105469 163.011719 C 183 163.011719 182.917969 163.089844 182.917969 163.199219 L 182.917969 163.660156 C 182.917969 163.765625 183 163.847656 183.105469 163.847656 L 193.921875 163.847656 C 194.019531 163.847656 194.113281 163.765625 194.113281 163.660156 Z M 201.910156 215.300781 L 171.453125 215.300781 L 171.453125 169.269531 L 201.910156 169.269531 L 201.910156 215.300781 "/><g clip-rule="nonzero" clip-path="url(#0c4fef9759)"><path style=" stroke:none;fill-rule:nonzero;fill:#2f381d;fill-opacity:1;" d="M 177.617188 160.851562 C 174.527344 160.851562 172.019531 163.359375 172.019531 166.449219 L 172.019531 220.507812 C 172.019531 223.597656 174.527344 226.105469 177.617188 226.105469 L 198.886719 226.105469 C 201.976562 226.105469 204.484375 223.597656 204.484375 220.507812 L 204.484375 166.449219 C 204.484375 163.363281 201.976562 160.851562 198.886719 160.851562 Z M 198.886719 226.699219 L 177.617188 226.699219 C 174.203125 226.699219 171.425781 223.921875 171.425781 220.507812 L 171.425781 166.449219 C 171.425781 163.039062 174.203125 160.257812 177.617188 160.257812 L 198.886719 160.257812 C 202.3125 160.257812 205.089844 163.039062 205.089844 166.449219 L 205.089844 220.507812 C 205.089844 223.921875 202.3125 226.699219 198.886719 226.699219 "/></g></g></svg>