<svg xmlns="http://www.w3.org/2000/svg" xmlns:xlink="http://www.w3.org/1999/xlink" width="500" zoomAndPan="magnify" viewBox="0 0 375 374.999991" height="500" preserveAspectRatio="xMidYMid meet" version="1.2"><defs><clipPath id="75d9305b20"><path d="M 0 75 L 0 300 C 0 341.421875 33.578125 375 75 375 L 300 375 C 341.421875 375 375 341.421875 375 300 L 375 75 C 375 33.578125 341.421875 0 300 0 L 75 0 C 33.578125 0 0 33.578125 0 75 Z M 0 75 "/></clipPath><clipPath id="eddefdb546"><path d="M 71 187.019531 L 88.992188 187.019531 L 88.992188 292.226562 L 71 292.226562 Z M 71 187.019531 "/></clipPath><clipPath id="c69ce818f1"><path d="M 71.882812 285.128906 C 71.675781 234.707031 73.980469 228.402344 73.980469 220.234375 C 74.191406 211.363281 69.789062 198.289062 71.464844 192.921875 C 72.304688 189.886719 74.402344 188.019531 76.5 187.316406 C 78.386719 186.617188 81.742188 187.316406 83.210938 188.71875 C 84.886719 190.585938 86.148438 195.957031 85.519531 198.523438 C 84.679688 200.625 81.953125 202.957031 80.066406 203.425781 C 77.96875 203.890625 74.609375 202.957031 73.351562 201.089844 C 71.882812 198.988281 71.046875 193.621094 72.09375 191.285156 C 72.933594 189.1875 75.871094 187.316406 77.96875 187.085938 C 80.066406 186.851562 82.792969 187.785156 84.46875 190.121094 C 87.40625 194.085938 88.035156 203.660156 88.664062 213.929688 C 89.710938 231.671875 87.40625 277.660156 84.679688 286.765625 C 83.839844 289.332031 83.210938 290.03125 81.953125 290.964844 C 80.902344 291.898438 79.015625 292.367188 77.546875 292.132812 C 76.289062 292.132812 74.609375 290.964844 73.5625 289.800781 C 72.722656 288.632812 71.882812 285.128906 71.882812 285.128906 "/></clipPath><clipPath id="1b637f43bb"><path d="M 43.507812 81.261719 L 119.917969 81.261719 L 119.917969 199.679688 L 43.507812 199.679688 Z M 43.507812 81.261719 "/></clipPath><clipPath id="4c31c14982"><path d="M 67.269531 193.6875 C 54.476562 183.410156 49.441406 177.117188 46.925781 169.988281 C 43.570312 160.757812 43.570312 145.867188 43.570312 135.796875 C 43.777344 127.828125 43.988281 120.90625 46.085938 114.40625 C 48.394531 108.113281 52.796875 102.03125 56.78125 97.414062 C 59.929688 93.429688 62.238281 90.285156 67.058594 87.976562 C 74.820312 84.203125 93.90625 80.636719 100.621094 81.683594 C 103.976562 82.105469 105.441406 83.363281 107.332031 85.042969 C 110.265625 87.558594 112.785156 92.382812 114.882812 96.367188 C 116.769531 100.5625 118.65625 104.546875 119.285156 109.582031 C 120.335938 115.453125 119.707031 121.328125 118.867188 129.507812 C 117.816406 142.71875 114.460938 170.40625 110.6875 181.3125 C 108.800781 186.554688 107.539062 189.703125 104.394531 192.636719 C 101.039062 195.785156 95.585938 198.09375 91.179688 198.929688 C 86.984375 199.980469 82.371094 199.769531 78.175781 198.722656 C 73.773438 197.460938 66.851562 194.945312 64.964844 191.589844 C 63.703125 189.074219 64.125 184.25 65.59375 182.359375 C 67.269531 180.472656 72.515625 179.632812 74.820312 180.472656 C 76.707031 181.3125 78.804688 184.039062 79.015625 186.136719 C 79.433594 188.234375 78.175781 191.589844 76.707031 193.058594 C 75.242188 194.527344 71.882812 195.367188 69.789062 194.945312 C 67.691406 194.316406 65.171875 192.007812 64.332031 190.121094 C 63.496094 188.652344 63.496094 186.765625 64.125 185.296875 C 64.753906 183.410156 66.640625 180.894531 69.15625 180.054688 C 72.933594 179.003906 82.371094 184.457031 86.777344 184.25 C 89.710938 184.039062 91.808594 183.410156 93.488281 182.152344 C 94.957031 180.683594 95.585938 179.425781 96.632812 176.488281 C 99.359375 168.726562 102.507812 141.882812 103.765625 129.507812 C 104.394531 121.117188 104.8125 114.824219 104.183594 108.953125 C 103.554688 104.335938 103.765625 98.675781 100.621094 96.785156 C 96.632812 94.058594 84.46875 97.414062 78.386719 99.933594 C 73.5625 101.820312 69.996094 104.757812 66.640625 108.324219 C 63.285156 112.097656 60.140625 116.082031 58.671875 122.164062 C 55.945312 132.023438 56.78125 153.835938 59.089844 163.695312 C 60.558594 169.355469 63.074219 173.132812 66.011719 176.699219 C 68.527344 179.84375 73.773438 181.523438 75.449219 183.828125 C 76.707031 185.296875 77.335938 186.554688 77.335938 188.023438 C 77.128906 189.703125 76.078125 192.429688 74.609375 193.476562 C 72.933594 194.527344 67.269531 193.6875 67.269531 193.6875 "/></clipPath><clipPath id="18f419a206"><path d="M 72.582031 110 L 86.722656 110 L 86.722656 155 L 72.582031 155 Z M 72.582031 110 "/></clipPath><clipPath id="f73f7c3e9b"><path d="M 86.625 115.269531 C 84.011719 147.128906 84.011719 151.4375 82.164062 153.285156 C 80.625 154.667969 77.546875 154.976562 76.007812 154.359375 C 74.621094 153.898438 73.390625 151.746094 73.082031 150.359375 C 72.929688 148.972656 73.851562 146.820312 74.929688 145.894531 C 76.007812 144.816406 78.160156 144.355469 79.546875 144.664062 C 81.085938 145.125 82.777344 146.664062 83.242188 148.050781 C 83.703125 149.28125 83.394531 151.589844 82.472656 152.820312 C 81.703125 154.054688 79.546875 155.128906 78.160156 154.976562 C 76.46875 154.824219 74.160156 153.128906 73.238281 150.976562 C 71.390625 146.664062 74.007812 135.121094 75.082031 128.042969 C 76.007812 121.886719 76.316406 113.421875 78.929688 111.113281 C 80.316406 109.882812 82.933594 109.726562 84.164062 110.496094 C 85.550781 111.113281 86.625 115.269531 86.625 115.269531 "/></clipPath><clipPath id="f6cfdfe430"><path d="M 44.535156 206 L 61 206 L 61 222.210938 L 44.535156 222.210938 Z M 44.535156 206 "/></clipPath><clipPath id="ed5084d856"><path d="M 60.976562 211.726562 C 58.878906 220.742188 57.832031 221.375 56.363281 221.792969 C 54.476562 222.421875 50.492188 222.210938 48.601562 221.375 C 47.34375 220.742188 46.503906 219.695312 45.875 218.648438 C 45.246094 217.386719 44.617188 216.128906 44.617188 214.660156 C 44.828125 212.773438 46.296875 209 47.765625 207.738281 C 48.8125 206.691406 50.070312 206.0625 51.539062 206.0625 C 53.425781 205.851562 58.878906 208.371094 58.878906 208.371094 "/></clipPath><clipPath id="48d8303cd2"><path d="M 44.535156 228.632812 L 61 228.632812 L 61 244.863281 L 44.535156 244.863281 Z M 44.535156 228.632812 "/></clipPath><clipPath id="a38bc95a5e"><path d="M 60.976562 234.378906 C 58.878906 243.394531 57.832031 244.027344 56.363281 244.445312 C 54.476562 245.074219 50.492188 244.863281 48.601562 244.027344 C 47.34375 243.394531 46.503906 242.347656 45.875 241.296875 C 45.246094 240.039062 44.617188 238.78125 44.617188 237.3125 C 44.828125 235.425781 46.296875 231.652344 47.765625 230.390625 C 48.8125 229.34375 50.070312 228.714844 51.539062 228.714844 C 53.425781 228.503906 58.878906 231.019531 58.878906 231.019531 "/></clipPath><filter x="0%" y="0%" width="100%" filterUnits="objectBoundingBox" id="e3f86fbfe2" height="100%"><feColorMatrix values="0 0 0 0 1 0 0 0 0 1 0 0 0 0 1 0 0 0 1 0" type="matrix" in="SourceGraphic"/></filter><clipPath id="589c9d377f"><path d="M 0.535156 0.632812 L 17 0.632812 L 17 16.863281 L 0.535156 16.863281 Z M 0.535156 0.632812 "/></clipPath><clipPath id="74d319315a"><path d="M 16.976562 6.378906 C 14.878906 15.394531 13.832031 16.027344 12.363281 16.445312 C 10.476562 17.074219 6.492188 16.863281 4.601562 16.027344 C 3.34375 15.394531 2.503906 14.347656 1.875 13.296875 C 1.246094 12.039062 0.617188 10.78125 0.617188 9.3125 C 0.828125 7.425781 2.296875 3.652344 3.765625 2.390625 C 4.8125 1.34375 6.070312 0.714844 7.539062 0.714844 C 9.425781 0.503906 14.878906 3.019531 14.878906 3.019531 "/></clipPath><clipPath id="475efc659d"><rect x="0" width="17" y="0" height="17"/></clipPath><clipPath id="8180281acc"><path d="M 44.328125 256.109375 L 60.8125 256.109375 L 60.8125 272.339844 L 44.328125 272.339844 Z M 44.328125 256.109375 "/></clipPath><clipPath id="29d7d3d8fa"><path d="M 60.769531 261.851562 C 58.671875 270.871094 57.621094 271.5 56.152344 271.921875 C 54.265625 272.550781 50.28125 272.339844 48.394531 271.5 C 47.136719 270.871094 46.296875 269.824219 45.667969 268.773438 C 45.039062 267.515625 44.410156 266.257812 44.410156 264.789062 C 44.617188 262.902344 46.085938 259.125 47.554688 257.867188 C 48.601562 256.820312 49.863281 256.191406 51.328125 256.191406 C 53.21875 255.980469 58.671875 258.496094 58.671875 258.496094 "/></clipPath><clipPath id="9f7f3445d4"><path d="M 0.398438 0.109375 L 16.8125 0.109375 L 16.8125 16.339844 L 0.398438 16.339844 Z M 0.398438 0.109375 "/></clipPath><clipPath id="ec2d7fa3da"><path d="M 16.769531 5.851562 C 14.671875 14.871094 13.621094 15.5 12.152344 15.921875 C 10.265625 16.550781 6.28125 16.339844 4.394531 15.5 C 3.136719 14.871094 2.296875 13.824219 1.667969 12.773438 C 1.039062 11.515625 0.410156 10.257812 0.410156 8.789062 C 0.617188 6.902344 2.085938 3.125 3.554688 1.867188 C 4.601562 0.820312 5.863281 0.191406 7.328125 0.191406 C 9.21875 -0.0195312 14.671875 2.496094 14.671875 2.496094 "/></clipPath><clipPath id="db8e93e01e"><rect x="0" width="17" y="0" height="17"/></clipPath><clipPath id="e01e4e722d"><path d="M 288.152344 180.347656 L 306.15625 180.347656 L 306.15625 291.734375 L 288.152344 291.734375 Z M 288.152344 180.347656 "/></clipPath><clipPath id="a7ba51c602"><path d="M 289.050781 284.167969 C 288.839844 230.808594 291.148438 224.140625 291.148438 215.496094 C 291.355469 206.109375 286.953125 192.273438 288.628906 186.59375 C 289.46875 183.382812 291.566406 181.40625 293.664062 180.664062 C 295.550781 179.925781 298.90625 180.664062 300.375 182.148438 C 302.054688 184.125 303.3125 189.804688 302.683594 192.523438 C 301.84375 194.746094 299.117188 197.214844 297.230469 197.710938 C 295.132812 198.203125 291.777344 197.214844 290.515625 195.238281 C 289.050781 193.015625 288.210938 187.335938 289.257812 184.863281 C 290.097656 182.640625 293.035156 180.664062 295.132812 180.417969 C 297.230469 180.171875 299.957031 181.160156 301.632812 183.628906 C 304.570312 187.828125 305.199219 197.957031 305.828125 208.824219 C 306.878906 227.597656 304.570312 276.261719 301.84375 285.894531 C 301.003906 288.613281 300.375 289.351562 299.117188 290.339844 C 298.066406 291.328125 296.179688 291.824219 294.710938 291.578125 C 293.453125 291.578125 291.777344 290.339844 290.726562 289.105469 C 289.886719 287.871094 289.050781 284.167969 289.050781 284.167969 "/></clipPath><clipPath id="3f1442d923"><path d="M 258.519531 95.09375 L 304.773438 95.09375 L 304.773438 215.253906 L 258.519531 215.253906 Z M 258.519531 95.09375 "/></clipPath><clipPath id="70b3176c39"><path d="M 288.644531 186.554688 C 290.320312 106.832031 296.402344 109.289062 296.402344 109.957031 C 296.613281 110.628906 292 111.296875 289.691406 113.085938 C 286.125 115.539062 281.511719 120.007812 278.785156 125.367188 C 275.429688 132.511719 274.800781 143.902344 273.960938 152.835938 C 273.121094 161.320312 272.285156 170.476562 273.960938 177.625 C 275.429688 183.429688 278.15625 188.789062 281.511719 192.808594 C 284.867188 197.050781 292.417969 198.839844 294.304688 202.636719 C 295.773438 205.539062 295.984375 210.003906 294.515625 212.015625 C 293.257812 214.25 288.433594 215.589844 286.125 214.917969 C 284.027344 214.25 281.929688 211.566406 281.511719 209.335938 C 281.09375 207.324219 281.722656 203.753906 283.191406 202.414062 C 284.867188 200.625 289.902344 199.957031 292 200.625 C 293.46875 201.074219 294.726562 202.636719 295.144531 204.199219 C 295.984375 205.984375 296.195312 209.558594 294.933594 211.34375 C 293.675781 213.355469 289.902344 215.589844 286.753906 215.140625 C 282.5625 214.695312 276.269531 207.996094 272.285156 203.753906 C 268.507812 199.957031 265.363281 194.820312 263.054688 190.800781 C 261.375 187.449219 260.117188 185.441406 259.28125 181.421875 C 258.019531 175.390625 258.859375 165.339844 259.28125 157.300781 C 259.699219 149.261719 260.539062 140.777344 261.796875 133.628906 C 263.054688 127.824219 263.683594 122.6875 266.410156 117.550781 C 269.558594 111.519531 276.058594 103.929688 281.511719 100.132812 C 285.917969 97.230469 292.417969 94.324219 295.773438 95.441406 C 298.292969 96.335938 299.96875 99.910156 301.226562 102.589844 C 302.484375 105.269531 302.695312 106.832031 303.324219 111.074219 C 304.792969 123.582031 305.210938 176.285156 303.324219 186.554688 C 302.90625 189.460938 302.484375 190.351562 301.4375 191.691406 C 300.390625 193.03125 298.5 194.148438 296.824219 194.371094 C 295.355469 194.597656 293.046875 194.148438 291.789062 193.03125 C 290.320312 191.691406 288.644531 186.554688 288.644531 186.554688 "/></clipPath><clipPath id="457c9e0021"><path d="M 273.160156 110.609375 L 300.597656 110.609375 L 300.597656 152.871094 L 273.160156 152.871094 Z M 273.160156 110.609375 "/></clipPath><clipPath id="eda31edb2e"><path d="M 295.984375 122.015625 C 292 143.234375 291.160156 144.574219 289.902344 145.464844 C 288.433594 146.359375 286.335938 146.804688 284.65625 146.582031 C 283.191406 146.136719 281.09375 145.464844 280.253906 143.679688 C 278.574219 141 278.785156 133.851562 279.835938 128.941406 C 281.09375 123.582031 284.867188 115.539062 288.015625 112.636719 C 290.113281 111.074219 292.628906 110.40625 294.726562 110.851562 C 296.613281 111.296875 299.128906 113.53125 299.96875 115.539062 C 300.597656 117.105469 300.597656 118.667969 299.96875 120.902344 C 298.710938 126.484375 291.371094 142.785156 286.753906 146.804688 C 284.238281 149.039062 280.882812 149.933594 278.785156 149.484375 C 277.109375 149.261719 275.429688 147.699219 274.589844 146.136719 C 273.75 144.796875 273.542969 143.007812 273.75 140.777344 C 273.960938 136.53125 276.058594 126.484375 279.203125 123.355469 C 281.511719 121.347656 287.804688 121.125 287.59375 120.902344 C 287.59375 120.675781 279.203125 122.910156 278.996094 122.464844 C 278.996094 122.242188 282.140625 120.230469 283.820312 120.007812 C 285.289062 119.785156 287.386719 120.453125 288.851562 121.570312 C 290.320312 122.910156 291.371094 125.144531 291.789062 128.046875 C 292.207031 132.960938 290.113281 145.914062 286.964844 149.707031 C 285.078125 151.941406 281.300781 153.058594 278.996094 152.386719 C 276.898438 151.496094 274.171875 147.921875 273.960938 145.242188 C 273.332031 142.339844 275.429688 138.097656 277.316406 135.417969 C 278.996094 132.960938 281.722656 130.503906 284.027344 129.609375 C 285.707031 129.164062 287.59375 128.941406 289.0625 129.832031 C 290.949219 131.171875 293.675781 134.96875 293.46875 137.425781 C 293.46875 139.882812 289.0625 144.796875 288.433594 144.574219 C 287.804688 144.125 290.742188 132.066406 291.789062 132.066406 C 292.839844 132.066406 294.515625 140.328125 294.726562 143.457031 C 294.726562 145.6875 294.726562 147.476562 293.675781 149.039062 C 292.207031 150.824219 288.222656 152.835938 285.917969 152.386719 C 284.027344 152.164062 280.671875 147.921875 280.671875 147.921875 C 280.671875 147.921875 285.496094 152.613281 285.707031 152.386719 C 285.917969 152.164062 280.253906 147.476562 280.042969 145.019531 C 279.835938 143.007812 281.300781 139.660156 282.980469 138.542969 C 285.078125 137.203125 289.902344 137.203125 292 138.542969 C 293.675781 139.882812 294.933594 143.234375 294.726562 145.242188 C 294.304688 147.699219 291.160156 151.71875 288.851562 152.386719 C 286.964844 153.058594 283.820312 151.941406 282.351562 150.378906 C 280.882812 148.816406 279.625 145.464844 280.253906 143.457031 C 280.671875 141 284.449219 137.203125 286.753906 136.980469 C 289.0625 136.757812 293.046875 139.660156 294.097656 141.667969 C 294.933594 143.234375 294.933594 145.464844 294.304688 147.253906 C 293.675781 149.039062 291.371094 151.496094 289.480469 152.386719 C 287.804688 152.835938 285.707031 152.613281 284.238281 151.941406 C 282.769531 151.046875 281.300781 149.933594 280.671875 147.921875 C 279.625 144.125 281.300781 131.398438 284.027344 129.609375 C 285.917969 128.492188 290.53125 130.28125 292 132.289062 C 293.46875 134.078125 293.257812 138.097656 292.628906 141 C 291.578125 144.347656 288.222656 149.039062 285.707031 151.046875 C 284.238281 152.164062 282.5625 153.058594 280.882812 152.613281 C 278.574219 152.164062 275.429688 149.933594 274.171875 147.253906 C 272.492188 143.457031 273.121094 135.863281 274.589844 131.171875 C 276.058594 126.929688 279.414062 121.792969 281.929688 120.453125 C 283.609375 119.5625 285.707031 120.007812 287.175781 120.675781 C 288.644531 121.347656 290.320312 122.6875 290.949219 124.472656 C 291.789062 126.261719 292 129.832031 290.742188 131.621094 C 289.273438 133.628906 280.882812 134.078125 281.09375 134.523438 C 281.09375 135.191406 288.851562 133.40625 290.113281 134.96875 C 291.160156 136.757812 288.851562 142.785156 287.59375 145.242188 C 286.753906 147.027344 285.496094 148.59375 284.027344 149.261719 C 282.140625 149.933594 278.996094 149.933594 277.109375 148.816406 C 275.429688 147.699219 273.75 145.464844 273.542969 142.5625 C 273.332031 137.871094 278.367188 128.046875 281.722656 122.464844 C 284.449219 117.773438 288.015625 111.96875 291.160156 110.851562 C 293.46875 110.179688 296.195312 111.296875 297.871094 112.414062 C 299.128906 113.53125 300.179688 114.871094 300.390625 117.328125 C 300.808594 122.464844 295.566406 138.097656 292.207031 142.785156 C 290.53125 145.019531 288.433594 146.359375 286.546875 146.582031 C 284.867188 146.804688 282.769531 146.136719 281.511719 145.019531 C 280.253906 143.902344 279.203125 142.5625 278.785156 140.328125 C 277.738281 135.640625 280.042969 121.347656 282.140625 117.105469 C 283.191406 115.09375 284.449219 113.976562 285.917969 113.308594 C 287.386719 112.636719 289.691406 112.414062 291.160156 113.085938 C 292.628906 113.53125 294.304688 115.09375 295.144531 116.433594 C 295.984375 117.996094 295.984375 122.015625 295.984375 122.015625 "/></clipPath><clipPath id="c38bec0505"><path d="M 0.160156 0.609375 L 27.597656 0.609375 L 27.597656 42.871094 L 0.160156 42.871094 Z M 0.160156 0.609375 "/></clipPath><clipPath id="23f03abe02"><path d="M 22.984375 12.015625 C 19 33.234375 18.160156 34.574219 16.902344 35.464844 C 15.433594 36.359375 13.335938 36.804688 11.65625 36.582031 C 10.191406 36.136719 8.09375 35.464844 7.253906 33.679688 C 5.574219 31 5.785156 23.851562 6.835938 18.941406 C 8.09375 13.582031 11.867188 5.539062 15.015625 2.636719 C 17.113281 1.074219 19.628906 0.40625 21.726562 0.851562 C 23.613281 1.296875 26.128906 3.53125 26.96875 5.539062 C 27.597656 7.105469 27.597656 8.667969 26.96875 10.902344 C 25.710938 16.484375 18.371094 32.785156 13.753906 36.804688 C 11.238281 39.039062 7.882812 39.933594 5.785156 39.484375 C 4.109375 39.261719 2.429688 37.699219 1.589844 36.136719 C 0.75 34.796875 0.542969 33.007812 0.75 30.777344 C 0.960938 26.53125 3.058594 16.484375 6.203125 13.355469 C 8.511719 11.347656 14.804688 11.125 14.59375 10.902344 C 14.59375 10.675781 6.203125 12.910156 5.996094 12.464844 C 5.996094 12.242188 9.140625 10.230469 10.820312 10.007812 C 12.289062 9.785156 14.386719 10.453125 15.851562 11.570312 C 17.320312 12.910156 18.371094 15.144531 18.789062 18.046875 C 19.207031 22.960938 17.113281 35.914062 13.964844 39.707031 C 12.078125 41.941406 8.300781 43.058594 5.996094 42.386719 C 3.898438 41.496094 1.171875 37.921875 0.960938 35.242188 C 0.332031 32.339844 2.429688 28.097656 4.316406 25.417969 C 5.996094 22.960938 8.722656 20.503906 11.027344 19.609375 C 12.707031 19.164062 14.59375 18.941406 16.0625 19.832031 C 17.949219 21.171875 20.675781 24.96875 20.46875 27.425781 C 20.46875 29.882812 16.0625 34.796875 15.433594 34.574219 C 14.804688 34.125 17.742188 22.066406 18.789062 22.066406 C 19.839844 22.066406 21.515625 30.328125 21.726562 33.457031 C 21.726562 35.6875 21.726562 37.476562 20.675781 39.039062 C 19.207031 40.824219 15.222656 42.835938 12.917969 42.386719 C 11.027344 42.164062 7.671875 37.921875 7.671875 37.921875 C 7.671875 37.921875 12.496094 42.613281 12.707031 42.386719 C 12.917969 42.164062 7.253906 37.476562 7.042969 35.019531 C 6.835938 33.007812 8.300781 29.660156 9.980469 28.542969 C 12.078125 27.203125 16.902344 27.203125 19 28.542969 C 20.675781 29.882812 21.933594 33.234375 21.726562 35.242188 C 21.304688 37.699219 18.160156 41.71875 15.851562 42.386719 C 13.964844 43.058594 10.820312 41.941406 9.351562 40.378906 C 7.882812 38.816406 6.625 35.464844 7.253906 33.457031 C 7.671875 31 11.449219 27.203125 13.753906 26.980469 C 16.0625 26.757812 20.046875 29.660156 21.097656 31.667969 C 21.933594 33.234375 21.933594 35.464844 21.304688 37.253906 C 20.675781 39.039062 18.371094 41.496094 16.480469 42.386719 C 14.804688 42.835938 12.707031 42.613281 11.238281 41.941406 C 9.769531 41.046875 8.300781 39.933594 7.671875 37.921875 C 6.625 34.125 8.300781 21.398438 11.027344 19.609375 C 12.917969 18.492188 17.53125 20.28125 19 22.289062 C 20.46875 24.078125 20.257812 28.097656 19.628906 31 C 18.578125 34.347656 15.222656 39.039062 12.707031 41.046875 C 11.238281 42.164062 9.5625 43.058594 7.882812 42.613281 C 5.574219 42.164062 2.429688 39.933594 1.171875 37.253906 C -0.507812 33.457031 0.121094 25.863281 1.589844 21.171875 C 3.058594 16.929688 6.414062 11.792969 8.929688 10.453125 C 10.609375 9.5625 12.707031 10.007812 14.175781 10.675781 C 15.644531 11.347656 17.320312 12.6875 17.949219 14.472656 C 18.789062 16.261719 19 19.832031 17.742188 21.621094 C 16.273438 23.628906 7.882812 24.078125 8.09375 24.523438 C 8.09375 25.191406 15.851562 23.40625 17.113281 24.96875 C 18.160156 26.757812 15.851562 32.785156 14.59375 35.242188 C 13.753906 37.027344 12.496094 38.59375 11.027344 39.261719 C 9.140625 39.933594 5.996094 39.933594 4.109375 38.816406 C 2.429688 37.699219 0.75 35.464844 0.542969 32.5625 C 0.332031 27.871094 5.367188 18.046875 8.722656 12.464844 C 11.449219 7.773438 15.015625 1.96875 18.160156 0.851562 C 20.46875 0.179688 23.195312 1.296875 24.871094 2.414062 C 26.128906 3.53125 27.179688 4.871094 27.390625 7.328125 C 27.808594 12.464844 22.566406 28.097656 19.207031 32.785156 C 17.53125 35.019531 15.433594 36.359375 13.546875 36.582031 C 11.867188 36.804688 9.769531 36.136719 8.511719 35.019531 C 7.253906 33.902344 6.203125 32.5625 5.785156 30.328125 C 4.738281 25.640625 7.042969 11.347656 9.140625 7.105469 C 10.191406 5.09375 11.449219 3.976562 12.917969 3.308594 C 14.386719 2.636719 16.691406 2.414062 18.160156 3.085938 C 19.628906 3.53125 21.304688 5.09375 22.144531 6.433594 C 22.984375 7.996094 22.984375 12.015625 22.984375 12.015625 "/></clipPath><clipPath id="e3e32e1dad"><rect x="0" width="28" y="0" height="43"/></clipPath><clipPath id="5fa84c1f55"><path d="M 262.578125 144.601562 L 298.539062 144.601562 L 298.539062 185.441406 L 262.578125 185.441406 Z M 262.578125 144.601562 "/></clipPath><clipPath id="70582dd477"><path d="M 275.847656 164.671875 C 275.011719 161.542969 272.285156 163.109375 271.234375 162.214844 C 269.976562 161.320312 269.347656 157.300781 269.765625 155.292969 C 269.976562 153.503906 271.234375 151.71875 272.703125 150.824219 C 274.378906 149.707031 277.316406 149.261719 279.625 149.933594 C 282.140625 151.046875 287.382812 156.183594 286.964844 157.523438 C 286.546875 158.863281 279.625 157.523438 278.996094 158.863281 C 278.367188 160.429688 283.820312 164.671875 283.398438 166.011719 C 282.769531 167.574219 278.574219 167.796875 275.847656 167.796875 C 272.914062 167.796875 268.71875 167.351562 266.621094 165.789062 C 264.523438 164.222656 262.84375 161.320312 262.636719 158.863281 C 262.425781 156.183594 264.101562 152.613281 265.78125 150.378906 C 267.667969 147.921875 271.023438 145.019531 273.960938 144.796875 C 276.476562 144.347656 279.414062 146.136719 281.929688 147.476562 C 284.238281 149.039062 288.644531 151.71875 288.433594 153.28125 C 288.222656 154.84375 281.511719 157.300781 281.09375 156.855469 C 280.671875 156.410156 284.027344 151.496094 285.707031 150.15625 C 287.175781 149.039062 289.0625 148.144531 290.742188 148.144531 C 292.207031 148.144531 294.304688 149.039062 295.566406 150.15625 C 296.613281 151.273438 297.453125 152.835938 297.871094 155.070312 C 298.710938 159.757812 298.710938 172.039062 295.566406 177.175781 C 293.046875 181.421875 285.917969 186.109375 283.191406 185.214844 C 281.09375 184.769531 280.882812 180.082031 278.996094 177.847656 C 276.898438 175.613281 272.285156 174.71875 270.816406 172.265625 C 269.558594 170.253906 269.136719 166.90625 269.976562 164.894531 C 271.023438 162.882812 274.589844 159.757812 276.898438 159.980469 C 279.414062 160.203125 281.511719 165.339844 284.238281 166.679688 C 286.335938 167.796875 289.902344 166.234375 291.160156 167.796875 C 292.417969 169.359375 292.417969 174.496094 291.160156 176.730469 C 290.113281 178.515625 287.175781 180.082031 285.078125 180.082031 C 283.191406 180.082031 280.042969 178.742188 278.996094 176.730469 C 277.945312 174.71875 278.367188 169.359375 279.414062 167.351562 C 280.253906 165.789062 281.722656 164.894531 283.398438 164.671875 C 285.289062 164.449219 288.433594 165.117188 290.113281 166.457031 C 291.578125 168.019531 292.628906 171.148438 292.417969 173.378906 C 292 175.613281 290.113281 178.515625 288.222656 179.1875 C 286.125 180.304688 281.300781 179.1875 279.625 177.402344 C 278.15625 175.835938 277.527344 172.488281 277.945312 170.253906 C 278.367188 168.246094 280.671875 165.566406 282.5625 164.894531 C 284.449219 164.222656 287.804688 164.449219 289.480469 166.011719 C 291.160156 167.574219 292.839844 172.488281 292 174.945312 C 291.160156 177.175781 287.804688 179.855469 285.078125 180.082031 C 281.511719 180.527344 274.378906 176.730469 271.863281 173.605469 C 270.1875 171.371094 269.347656 167.351562 269.976562 164.894531 C 270.605469 162.882812 273.121094 160.875 275.21875 160.203125 C 277.316406 159.535156 280.671875 160.429688 283.191406 161.320312 C 285.707031 162.214844 288.851562 163.554688 290.320312 165.789062 C 291.578125 167.796875 292.628906 172.265625 291.371094 174.273438 C 290.113281 176.507812 282.769531 178.964844 280.882812 177.175781 C 278.15625 174.71875 281.722656 155.960938 284.65625 151.496094 C 286.125 149.261719 288.644531 148.144531 290.742188 148.144531 C 292.839844 148.367188 296.613281 151.046875 297.453125 153.28125 C 298.292969 155.292969 297.660156 158.417969 296.613281 160.429688 C 295.566406 162.882812 293.046875 165.566406 290.742188 166.679688 C 288.644531 168.019531 285.707031 168.914062 283.398438 168.246094 C 280.882812 167.351562 278.15625 163.777344 276.476562 160.875 C 275.011719 158.195312 272.914062 153.503906 274.171875 151.941406 C 275.847656 150.15625 287.382812 152.386719 290.53125 155.292969 C 292.839844 157.300781 294.097656 161.542969 293.675781 164 C 293.257812 166.457031 290.53125 169.136719 288.222656 170.03125 C 285.917969 171.148438 281.929688 171.371094 279.203125 170.03125 C 275.640625 168.46875 270.605469 162.214844 269.558594 158.863281 C 269.136719 157.078125 269.558594 155.070312 270.394531 153.503906 C 271.234375 151.941406 272.492188 150.378906 274.378906 149.933594 C 277.105469 149.261719 283.191406 151.273438 285.917969 153.503906 C 288.222656 155.515625 289.902344 158.863281 290.320312 161.320312 C 290.949219 163.554688 290.742188 165.789062 289.902344 167.574219 C 288.851562 169.359375 286.335938 171.59375 284.449219 171.816406 C 282.5625 172.265625 279.414062 171.148438 277.945312 169.808594 C 276.6875 168.46875 275.847656 164.671875 275.847656 164.671875 "/></clipPath><clipPath id="787fa633de"><path d="M 0.578125 0.601562 L 36.539062 0.601562 L 36.539062 41.441406 L 0.578125 41.441406 Z M 0.578125 0.601562 "/></clipPath><clipPath id="4c26146b46"><path d="M 13.847656 20.671875 C 13.011719 17.542969 10.285156 19.109375 9.234375 18.214844 C 7.976562 17.320312 7.347656 13.300781 7.765625 11.292969 C 7.976562 9.503906 9.234375 7.71875 10.703125 6.824219 C 12.378906 5.707031 15.316406 5.261719 17.625 5.933594 C 20.140625 7.046875 25.382812 12.183594 24.964844 13.523438 C 24.546875 14.863281 17.625 13.523438 16.996094 14.863281 C 16.367188 16.429688 21.820312 20.671875 21.398438 22.011719 C 20.769531 23.574219 16.574219 23.796875 13.847656 23.796875 C 10.914062 23.796875 6.71875 23.351562 4.621094 21.789062 C 2.523438 20.222656 0.84375 17.320312 0.636719 14.863281 C 0.425781 12.183594 2.101562 8.613281 3.78125 6.378906 C 5.667969 3.921875 9.023438 1.019531 11.960938 0.796875 C 14.476562 0.347656 17.414062 2.136719 19.929688 3.476562 C 22.238281 5.039062 26.644531 7.71875 26.433594 9.28125 C 26.222656 10.84375 19.511719 13.300781 19.09375 12.855469 C 18.671875 12.410156 22.027344 7.496094 23.707031 6.15625 C 25.175781 5.039062 27.0625 4.144531 28.742188 4.144531 C 30.207031 4.144531 32.304688 5.039062 33.566406 6.15625 C 34.613281 7.273438 35.453125 8.835938 35.871094 11.070312 C 36.710938 15.757812 36.710938 28.039062 33.566406 33.175781 C 31.046875 37.421875 23.917969 42.109375 21.191406 41.214844 C 19.09375 40.769531 18.882812 36.082031 16.996094 33.847656 C 14.898438 31.613281 10.285156 30.71875 8.816406 28.265625 C 7.558594 26.253906 7.136719 22.90625 7.976562 20.894531 C 9.023438 18.882812 12.589844 15.757812 14.898438 15.980469 C 17.414062 16.203125 19.511719 21.339844 22.238281 22.679688 C 24.335938 23.796875 27.902344 22.234375 29.160156 23.796875 C 30.417969 25.359375 30.417969 30.496094 29.160156 32.730469 C 28.113281 34.515625 25.175781 36.082031 23.078125 36.082031 C 21.191406 36.082031 18.042969 34.742188 16.996094 32.730469 C 15.945312 30.71875 16.367188 25.359375 17.414062 23.351562 C 18.253906 21.789062 19.722656 20.894531 21.398438 20.671875 C 23.289062 20.449219 26.433594 21.117188 28.113281 22.457031 C 29.578125 24.019531 30.628906 27.148438 30.417969 29.378906 C 30 31.613281 28.113281 34.515625 26.222656 35.1875 C 24.125 36.304688 19.300781 35.1875 17.625 33.402344 C 16.15625 31.835938 15.527344 28.488281 15.945312 26.253906 C 16.367188 24.246094 18.671875 21.566406 20.5625 20.894531 C 22.449219 20.222656 25.804688 20.449219 27.480469 22.011719 C 29.160156 23.574219 30.839844 28.488281 30 30.945312 C 29.160156 33.175781 25.804688 35.855469 23.078125 36.082031 C 19.511719 36.527344 12.378906 32.730469 9.863281 29.605469 C 8.1875 27.371094 7.347656 23.351562 7.976562 20.894531 C 8.605469 18.882812 11.121094 16.875 13.21875 16.203125 C 15.316406 15.535156 18.671875 16.429688 21.191406 17.320312 C 23.707031 18.214844 26.851562 19.554688 28.320312 21.789062 C 29.578125 23.796875 30.628906 28.265625 29.371094 30.273438 C 28.113281 32.507812 20.769531 34.964844 18.882812 33.175781 C 16.15625 30.71875 19.722656 11.960938 22.65625 7.496094 C 24.125 5.261719 26.644531 4.144531 28.742188 4.144531 C 30.839844 4.367188 34.613281 7.046875 35.453125 9.28125 C 36.292969 11.292969 35.660156 14.417969 34.613281 16.429688 C 33.566406 18.882812 31.046875 21.566406 28.742188 22.679688 C 26.644531 24.019531 23.707031 24.914062 21.398438 24.246094 C 18.882812 23.351562 16.15625 19.777344 14.476562 16.875 C 13.011719 14.195312 10.914062 9.503906 12.171875 7.941406 C 13.847656 6.15625 25.382812 8.386719 28.53125 11.292969 C 30.839844 13.300781 32.097656 17.542969 31.675781 20 C 31.257812 22.457031 28.53125 25.136719 26.222656 26.03125 C 23.917969 27.148438 19.929688 27.371094 17.203125 26.03125 C 13.640625 24.46875 8.605469 18.214844 7.558594 14.863281 C 7.136719 13.078125 7.558594 11.070312 8.394531 9.503906 C 9.234375 7.941406 10.492188 6.378906 12.378906 5.933594 C 15.105469 5.261719 21.191406 7.273438 23.917969 9.503906 C 26.222656 11.515625 27.902344 14.863281 28.320312 17.320312 C 28.949219 19.554688 28.742188 21.789062 27.902344 23.574219 C 26.851562 25.359375 24.335938 27.59375 22.449219 27.816406 C 20.5625 28.265625 17.414062 27.148438 15.945312 25.808594 C 14.6875 24.46875 13.847656 20.671875 13.847656 20.671875 "/></clipPath><clipPath id="e803cfa568"><rect x="0" width="37" y="0" height="42"/></clipPath><clipPath id="e462910c32"><path d="M 268.222656 170.511719 L 292.542969 170.511719 L 292.542969 205 L 268.222656 205 Z M 268.222656 170.511719 "/></clipPath><clipPath id="56eaa5b789"><path d="M 282.769531 176.285156 C 292.417969 193.257812 291.789062 197.277344 290.113281 198.839844 C 288.433594 200.625 284.238281 201.519531 281.929688 200.179688 C 278.785156 198.617188 275.21875 189.683594 274.589844 185.664062 C 274.171875 183.207031 274.589844 180.972656 275.429688 179.410156 C 276.269531 177.847656 277.738281 176.285156 279.414062 175.613281 C 280.882812 174.945312 282.980469 174.945312 284.449219 175.613281 C 286.125 176.285156 287.382812 177.402344 288.433594 179.410156 C 290.113281 182.761719 291.578125 192.585938 290.53125 197.050781 C 289.691406 200.402344 287.59375 203.976562 285.289062 204.867188 C 282.980469 205.539062 278.367188 203.304688 276.898438 201.519531 C 275.640625 199.730469 275.640625 196.160156 276.476562 194.148438 C 277.316406 192.140625 279.835938 189.90625 281.929688 189.683594 C 284.238281 189.238281 288.851562 191.691406 289.902344 193.925781 C 290.742188 196.160156 289.902344 201.519531 288.015625 203.082031 C 286.335938 204.867188 281.09375 204.867188 279.203125 203.753906 C 277.738281 203.082031 277.105469 201.742188 276.269531 199.957031 C 275.011719 196.382812 273.542969 187.226562 274.589844 182.984375 C 275.429688 179.855469 277.105469 176.507812 279.414062 175.613281 C 281.511719 174.71875 285.917969 176.058594 287.382812 177.847656 C 288.851562 179.632812 287.382812 183.429688 288.222656 186.109375 C 289.0625 188.789062 292.417969 191.46875 292.417969 193.925781 C 292.417969 195.710938 291.371094 197.722656 290.113281 198.839844 C 289.0625 199.957031 287.382812 201.296875 285.289062 201.074219 C 282.140625 200.625 275.429688 195.265625 272.492188 191.46875 C 270.1875 188.34375 268.925781 183.652344 268.507812 180.75 C 268.296875 178.515625 268.296875 176.730469 268.925781 175.167969 C 269.976562 173.378906 272.703125 171.148438 274.589844 170.699219 C 276.058594 170.476562 278.15625 170.925781 279.625 171.816406 C 280.882812 172.933594 282.769531 176.285156 282.769531 176.285156 "/></clipPath><clipPath id="c46ab44873"><path d="M 0.222656 0.511719 L 24.542969 0.511719 L 24.542969 35 L 0.222656 35 Z M 0.222656 0.511719 "/></clipPath><clipPath id="fe08457955"><path d="M 14.769531 6.285156 C 24.417969 23.257812 23.789062 27.277344 22.113281 28.839844 C 20.433594 30.625 16.238281 31.519531 13.929688 30.179688 C 10.785156 28.617188 7.21875 19.683594 6.589844 15.664062 C 6.171875 13.207031 6.589844 10.972656 7.429688 9.410156 C 8.269531 7.847656 9.738281 6.285156 11.414062 5.613281 C 12.882812 4.945312 14.980469 4.945312 16.449219 5.613281 C 18.125 6.285156 19.382812 7.402344 20.433594 9.410156 C 22.113281 12.761719 23.578125 22.585938 22.53125 27.050781 C 21.691406 30.402344 19.59375 33.976562 17.289062 34.867188 C 14.980469 35.539062 10.367188 33.304688 8.898438 31.519531 C 7.640625 29.730469 7.640625 26.160156 8.476562 24.148438 C 9.316406 22.140625 11.835938 19.90625 13.929688 19.683594 C 16.238281 19.238281 20.851562 21.691406 21.902344 23.925781 C 22.742188 26.160156 21.902344 31.519531 20.015625 33.082031 C 18.335938 34.867188 13.09375 34.867188 11.203125 33.753906 C 9.738281 33.082031 9.105469 31.742188 8.269531 29.957031 C 7.011719 26.382812 5.542969 17.226562 6.589844 12.984375 C 7.429688 9.855469 9.105469 6.507812 11.414062 5.613281 C 13.511719 4.71875 17.917969 6.058594 19.382812 7.847656 C 20.851562 9.632812 19.382812 13.429688 20.222656 16.109375 C 21.0625 18.789062 24.417969 21.46875 24.417969 23.925781 C 24.417969 25.710938 23.371094 27.722656 22.113281 28.839844 C 21.0625 29.957031 19.382812 31.296875 17.289062 31.074219 C 14.140625 30.625 7.429688 25.265625 4.492188 21.46875 C 2.1875 18.34375 0.925781 13.652344 0.507812 10.75 C 0.296875 8.515625 0.296875 6.730469 0.925781 5.167969 C 1.976562 3.378906 4.703125 1.148438 6.589844 0.699219 C 8.058594 0.476562 10.15625 0.925781 11.625 1.816406 C 12.882812 2.933594 14.769531 6.285156 14.769531 6.285156 "/></clipPath><clipPath id="3ec4d38b69"><rect x="0" width="25" y="0" height="35"/></clipPath><clipPath id="a3c84bf6fb"><path d="M 269.046875 173.234375 L 293.808594 173.234375 L 293.808594 203.109375 L 269.046875 203.109375 Z M 269.046875 173.234375 "/></clipPath><clipPath id="1a104fdb49"><path d="M 274.171875 190.578125 C 275.011719 184.992188 283.191406 182.089844 286.335938 182.984375 C 289.273438 184.101562 291.789062 188.566406 292.839844 191.46875 C 293.675781 193.925781 293.886719 196.828125 292.839844 198.839844 C 292 200.625 289.273438 202.636719 287.175781 202.859375 C 285.707031 203.304688 283.398438 202.859375 282.140625 201.742188 C 280.464844 199.957031 281.09375 195.488281 279.414062 192.808594 C 277.316406 189.683594 271.023438 187.671875 269.765625 184.769531 C 268.71875 182.535156 269.136719 179.1875 270.1875 177.402344 C 271.234375 175.613281 274.171875 174.050781 276.058594 173.605469 C 277.738281 173.378906 279.625 174.273438 281.09375 175.390625 C 282.980469 176.953125 286.335938 181.421875 285.707031 183.207031 C 285.289062 184.992188 279.625 186.554688 277.527344 186.332031 C 276.058594 186.109375 274.589844 184.992188 274.171875 183.875 C 273.542969 182.089844 273.960938 178.292969 275.21875 176.507812 C 276.476562 174.71875 279.414062 173.378906 281.300781 173.378906 C 283.398438 173.378906 286.335938 175.167969 287.382812 177.175781 C 288.433594 179.1875 288.015625 184.546875 286.546875 186.554688 C 285.289062 188.121094 281.929688 189.238281 280.042969 189.011719 C 277.945312 188.566406 275.21875 186.554688 274.378906 184.546875 C 273.542969 182.3125 274.589844 177.175781 276.269531 175.390625 C 277.738281 173.828125 281.09375 173.15625 282.980469 173.605469 C 284.867188 174.273438 287.175781 176.058594 288.015625 178.515625 C 289.480469 182.535156 289.691406 193.925781 287.175781 196.382812 C 284.867188 198.390625 278.785156 197.277344 275.847656 195.265625 C 272.914062 193.480469 270.394531 188.121094 269.765625 184.769531 C 269.347656 181.644531 269.558594 177.625 271.234375 176.058594 C 272.914062 174.273438 276.6875 173.605469 279.414062 174.273438 C 283.191406 175.390625 288.851562 181.195312 291.160156 185.214844 C 293.046875 188.34375 293.886719 192.140625 293.675781 195.042969 C 293.46875 197.5 292.207031 200.402344 290.53125 201.519531 C 288.851562 202.859375 286.125 203.304688 283.820312 202.414062 C 280.253906 201.074219 275.011719 193.925781 273.121094 189.90625 C 271.863281 187.003906 270.605469 183.207031 271.863281 181.195312 C 273.542969 178.515625 282.980469 175.835938 285.707031 177.402344 C 288.222656 178.964844 288.851562 185.664062 288.851562 188.789062 C 288.644531 191.46875 288.015625 194.371094 286.335938 195.710938 C 284.449219 197.050781 280.042969 197.5 277.945312 196.605469 C 276.058594 195.710938 274.171875 190.578125 274.171875 190.578125 "/></clipPath><clipPath id="972a7ef7d0"><path d="M 0.046875 0.234375 L 24.808594 0.234375 L 24.808594 30.109375 L 0.046875 30.109375 Z M 0.046875 0.234375 "/></clipPath><clipPath id="85e838356c"><path d="M 5.171875 17.578125 C 6.011719 11.992188 14.191406 9.089844 17.335938 9.984375 C 20.273438 11.101562 22.789062 15.566406 23.839844 18.46875 C 24.675781 20.925781 24.886719 23.828125 23.839844 25.839844 C 23 27.625 20.273438 29.636719 18.175781 29.859375 C 16.707031 30.304688 14.398438 29.859375 13.140625 28.742188 C 11.464844 26.957031 12.09375 22.488281 10.414062 19.808594 C 8.316406 16.683594 2.023438 14.671875 0.765625 11.769531 C -0.28125 9.535156 0.136719 6.1875 1.1875 4.402344 C 2.234375 2.613281 5.171875 1.050781 7.058594 0.605469 C 8.738281 0.378906 10.625 1.273438 12.09375 2.390625 C 13.980469 3.953125 17.335938 8.421875 16.707031 10.207031 C 16.289062 11.992188 10.625 13.554688 8.527344 13.332031 C 7.058594 13.109375 5.589844 11.992188 5.171875 10.875 C 4.542969 9.089844 4.960938 5.292969 6.21875 3.507812 C 7.476562 1.71875 10.414062 0.378906 12.300781 0.378906 C 14.398438 0.378906 17.335938 2.167969 18.382812 4.175781 C 19.433594 6.1875 19.015625 11.546875 17.546875 13.554688 C 16.289062 15.121094 12.929688 16.238281 11.042969 16.011719 C 8.945312 15.566406 6.21875 13.554688 5.378906 11.546875 C 4.542969 9.3125 5.589844 4.175781 7.269531 2.390625 C 8.738281 0.828125 12.09375 0.15625 13.980469 0.605469 C 15.867188 1.273438 18.175781 3.058594 19.015625 5.515625 C 20.480469 9.535156 20.691406 20.925781 18.175781 23.382812 C 15.867188 25.390625 9.785156 24.277344 6.847656 22.265625 C 3.914062 20.480469 1.394531 15.121094 0.765625 11.769531 C 0.347656 8.644531 0.558594 4.625 2.234375 3.058594 C 3.914062 1.273438 7.6875 0.605469 10.414062 1.273438 C 14.191406 2.390625 19.851562 8.195312 22.160156 12.214844 C 24.046875 15.34375 24.886719 19.140625 24.675781 22.042969 C 24.46875 24.5 23.207031 27.402344 21.53125 28.519531 C 19.851562 29.859375 17.125 30.304688 14.820312 29.414062 C 11.253906 28.074219 6.011719 20.925781 4.121094 16.90625 C 2.863281 14.003906 1.605469 10.207031 2.863281 8.195312 C 4.542969 5.515625 13.980469 2.835938 16.707031 4.402344 C 19.222656 5.964844 19.851562 12.664062 19.851562 15.789062 C 19.644531 18.46875 19.015625 21.371094 17.335938 22.710938 C 15.449219 24.050781 11.042969 24.5 8.945312 23.605469 C 7.058594 22.710938 5.171875 17.578125 5.171875 17.578125 "/></clipPath><clipPath id="0283dec942"><rect x="0" width="25" y="0" height="31"/></clipPath><clipPath id="ad78fce92e"><path d="M 259.683594 137.902344 L 296.746094 137.902344 L 296.746094 164.304688 L 259.683594 164.304688 Z M 259.683594 137.902344 "/></clipPath><clipPath id="b1ee45d5cf"><path d="M 288.433594 155.292969 C 261.375 152.164062 260.539062 150.601562 260.117188 148.816406 C 259.699219 147.253906 259.488281 145.019531 260.328125 143.457031 C 261.375 141.445312 264.3125 138.988281 267.460938 138.542969 C 272.914062 138.097656 290.113281 149.933594 291.160156 148.59375 C 291.789062 147.921875 289.0625 145.242188 289.480469 144.796875 C 289.902344 144.347656 293.257812 145.464844 294.304688 146.804688 C 295.773438 148.59375 297.242188 153.058594 296.402344 155.292969 C 295.566406 157.75 291.789062 160.429688 289.480469 160.429688 C 287.175781 160.429688 283.609375 157.523438 282.5625 155.292969 C 281.722656 153.28125 282.140625 149.707031 283.398438 148.144531 C 285.078125 146.136719 289.691406 144.574219 292 145.242188 C 293.886719 145.914062 296.195312 148.59375 296.613281 150.601562 C 297.03125 153.058594 295.144531 157.972656 293.046875 159.3125 C 291.371094 160.652344 288.015625 160.652344 286.335938 159.535156 C 284.449219 158.640625 282.351562 155.960938 282.140625 153.730469 C 282.140625 151.273438 284.449219 146.582031 286.546875 145.464844 C 288.433594 144.347656 292.628906 145.242188 294.304688 146.804688 C 295.984375 148.367188 297.242188 153.058594 296.402344 155.292969 C 295.566406 157.75 289.902344 158.640625 289.480469 160.429688 C 289.273438 161.542969 291.578125 163.554688 291.160156 164 C 289.902344 165.566406 267.878906 156.632812 263.472656 153.28125 C 261.375 151.71875 260.539062 150.601562 260.117188 148.816406 C 259.699219 147.253906 259.488281 145.019531 260.328125 143.457031 C 261.375 141.445312 264.101562 139.4375 267.460938 138.542969 C 273.121094 137.203125 288.644531 137.871094 292.628906 141.445312 C 294.933594 143.457031 295.773438 147.476562 294.933594 149.933594 C 294.304688 152.164062 288.433594 155.292969 288.433594 155.292969 "/></clipPath><clipPath id="9f1d997a5f"><path d="M 0.683594 0.902344 L 37.746094 0.902344 L 37.746094 27.304688 L 0.683594 27.304688 Z M 0.683594 0.902344 "/></clipPath><clipPath id="437130bc61"><path d="M 29.433594 18.292969 C 2.375 15.164062 1.539062 13.601562 1.117188 11.816406 C 0.699219 10.253906 0.488281 8.019531 1.328125 6.457031 C 2.375 4.445312 5.3125 1.988281 8.460938 1.542969 C 13.914062 1.097656 31.113281 12.933594 32.160156 11.59375 C 32.789062 10.921875 30.0625 8.242188 30.480469 7.796875 C 30.902344 7.347656 34.257812 8.464844 35.304688 9.804688 C 36.773438 11.59375 38.242188 16.058594 37.402344 18.292969 C 36.566406 20.75 32.789062 23.429688 30.480469 23.429688 C 28.175781 23.429688 24.609375 20.523438 23.5625 18.292969 C 22.722656 16.28125 23.140625 12.707031 24.398438 11.144531 C 26.078125 9.136719 30.691406 7.574219 33 8.242188 C 34.886719 8.914062 37.195312 11.59375 37.613281 13.601562 C 38.03125 16.058594 36.144531 20.972656 34.046875 22.3125 C 32.371094 23.652344 29.015625 23.652344 27.335938 22.535156 C 25.449219 21.640625 23.351562 18.960938 23.140625 16.730469 C 23.140625 14.273438 25.449219 9.582031 27.546875 8.464844 C 29.433594 7.347656 33.628906 8.242188 35.304688 9.804688 C 36.984375 11.367188 38.242188 16.058594 37.402344 18.292969 C 36.566406 20.75 30.902344 21.640625 30.480469 23.429688 C 30.273438 24.542969 32.578125 26.554688 32.160156 27 C 30.902344 28.566406 8.878906 19.632812 4.472656 16.28125 C 2.375 14.71875 1.539062 13.601562 1.117188 11.816406 C 0.699219 10.253906 0.488281 8.019531 1.328125 6.457031 C 2.375 4.445312 5.101562 2.4375 8.460938 1.542969 C 14.121094 0.203125 29.644531 0.871094 33.628906 4.445312 C 35.933594 6.457031 36.773438 10.476562 35.933594 12.933594 C 35.304688 15.164062 29.433594 18.292969 29.433594 18.292969 "/></clipPath><clipPath id="1b5e8e657c"><rect x="0" width="38" y="0" height="28"/></clipPath><clipPath id="4416e86563"><path d="M 270.667969 98.902344 L 303.261719 98.902344 L 303.261719 156.03125 L 270.667969 156.03125 Z M 270.667969 98.902344 "/></clipPath><clipPath id="85bc464cb2"><path d="M 295.144531 134.078125 C 295.144531 145.6875 293.886719 148.144531 292.207031 149.707031 C 290.742188 151.046875 288.222656 152.164062 285.917969 151.941406 C 283.398438 151.71875 279.835938 149.261719 278.367188 147.253906 C 277.316406 145.914062 276.898438 144.574219 276.898438 142.785156 C 276.898438 140.105469 280.253906 137.203125 280.882812 133.628906 C 281.511719 129.164062 277.945312 122.015625 278.785156 117.996094 C 279.625 114.871094 281.929688 111.746094 284.027344 110.40625 C 285.917969 109.289062 288.644531 108.839844 290.742188 109.734375 C 293.046875 110.40625 296.195312 112.636719 297.03125 115.988281 C 298.710938 121.570312 293.257812 137.648438 291.578125 142.785156 C 290.742188 144.796875 290.53125 145.914062 289.480469 147.027344 C 288.015625 148.59375 285.496094 150.15625 283.398438 150.378906 C 281.511719 150.601562 278.785156 149.933594 276.898438 148.59375 C 275.21875 147.476562 273.542969 145.464844 273.121094 142.785156 C 272.285156 137.425781 277.105469 124.25 280.042969 116.878906 C 282.5625 110.628906 285.078125 102.8125 288.644531 100.355469 C 291.160156 98.570312 295.144531 98.792969 297.453125 99.683594 C 299.550781 100.355469 301.4375 102.140625 302.277344 104.597656 C 303.746094 108.839844 302.695312 117.773438 300.808594 123.804688 C 298.5 130.726562 290.113281 138.320312 288.644531 143.457031 C 288.015625 146.136719 289.480469 148.367188 288.644531 150.378906 C 288.015625 152.164062 286.335938 154.175781 284.449219 154.84375 C 282.351562 155.960938 277.945312 155.960938 275.640625 154.621094 C 273.332031 153.28125 271.023438 149.484375 270.816406 146.804688 C 270.605469 144.125 272.492188 139.882812 274.378906 138.097656 C 275.640625 136.53125 277.945312 135.863281 279.835938 135.863281 C 282.351562 136.085938 286.335938 137.648438 287.804688 139.882812 C 289.480469 142.117188 289.691406 146.804688 289.0625 149.261719 C 288.644531 151.273438 286.964844 153.28125 285.496094 154.398438 C 283.820312 155.515625 281.511719 156.183594 279.625 155.960938 C 277.738281 155.738281 275.429688 155.070312 273.960938 153.503906 C 272.285156 151.496094 271.023438 147.699219 270.816406 144.574219 C 270.816406 141.667969 271.652344 138.765625 272.914062 135.417969 C 275.011719 130.058594 281.722656 121.792969 283.398438 116.210938 C 284.65625 112.414062 283.609375 108.839844 284.65625 105.9375 C 285.496094 103.703125 286.964844 101.472656 288.644531 100.355469 C 290.53125 99.238281 293.257812 98.792969 295.355469 99.015625 C 296.824219 99.238281 298.292969 99.683594 299.339844 100.800781 C 301.019531 102.589844 302.90625 105.492188 303.117188 109.289062 C 303.324219 117.105469 294.726562 138.988281 290.742188 145.019531 C 289.0625 147.699219 287.382812 148.816406 285.707031 149.707031 C 284.238281 150.378906 282.769531 150.601562 281.300781 150.378906 C 279.414062 149.933594 276.6875 148.367188 275.21875 147.027344 C 274.171875 145.914062 273.542969 144.574219 273.121094 142.785156 C 272.703125 139.660156 273.75 134.523438 274.589844 130.058594 C 275.640625 125.367188 277.527344 119.113281 279.414062 115.539062 C 280.882812 113.308594 282.140625 111.296875 284.027344 110.40625 C 285.917969 109.289062 288.644531 109.066406 290.742188 109.734375 C 292.628906 110.179688 294.726562 111.519531 295.984375 113.753906 C 298.5 117.328125 300.808594 125.8125 300.179688 131.621094 C 299.550781 137.648438 295.773438 146.582031 292.207031 149.707031 C 289.902344 151.71875 286.125 152.164062 283.820312 151.496094 C 281.511719 151.046875 279.625 149.484375 278.367188 147.253906 C 276.6875 144.125 275.847656 137.203125 276.269531 133.40625 C 276.898438 130.949219 278.15625 128.714844 279.625 127.375 C 280.882812 126.035156 282.140625 125.367188 283.609375 125.144531 C 285.496094 124.921875 288.433594 124.921875 290.320312 126.261719 C 292.417969 127.601562 295.144531 134.078125 295.144531 134.078125 "/></clipPath><clipPath id="012c234379"><path d="M 0.667969 0.902344 L 33.261719 0.902344 L 33.261719 58.03125 L 0.667969 58.03125 Z M 0.667969 0.902344 "/></clipPath><clipPath id="c1d53bc28a"><path d="M 25.144531 36.078125 C 25.144531 47.6875 23.886719 50.144531 22.207031 51.707031 C 20.742188 53.046875 18.222656 54.164062 15.917969 53.941406 C 13.398438 53.71875 9.835938 51.261719 8.367188 49.253906 C 7.316406 47.914062 6.898438 46.574219 6.898438 44.785156 C 6.898438 42.105469 10.253906 39.203125 10.882812 35.628906 C 11.511719 31.164062 7.945312 24.015625 8.785156 19.996094 C 9.625 16.871094 11.929688 13.746094 14.027344 12.40625 C 15.917969 11.289062 18.644531 10.839844 20.742188 11.734375 C 23.046875 12.40625 26.195312 14.636719 27.03125 17.988281 C 28.710938 23.570312 23.257812 39.648438 21.578125 44.785156 C 20.742188 46.796875 20.53125 47.914062 19.480469 49.027344 C 18.015625 50.59375 15.496094 52.15625 13.398438 52.378906 C 11.511719 52.601562 8.785156 51.933594 6.898438 50.59375 C 5.21875 49.476562 3.542969 47.464844 3.121094 44.785156 C 2.285156 39.425781 7.105469 26.25 10.042969 18.878906 C 12.5625 12.628906 15.078125 4.8125 18.644531 2.355469 C 21.160156 0.570312 25.144531 0.792969 27.453125 1.683594 C 29.550781 2.355469 31.4375 4.140625 32.277344 6.597656 C 33.746094 10.839844 32.695312 19.773438 30.808594 25.804688 C 28.5 32.726562 20.113281 40.320312 18.644531 45.457031 C 18.015625 48.136719 19.480469 50.367188 18.644531 52.378906 C 18.015625 54.164062 16.335938 56.175781 14.449219 56.84375 C 12.351562 57.960938 7.945312 57.960938 5.640625 56.621094 C 3.332031 55.28125 1.023438 51.484375 0.816406 48.804688 C 0.605469 46.125 2.492188 41.882812 4.378906 40.097656 C 5.640625 38.53125 7.945312 37.863281 9.835938 37.863281 C 12.351562 38.085938 16.335938 39.648438 17.804688 41.882812 C 19.480469 44.117188 19.691406 48.804688 19.0625 51.261719 C 18.644531 53.273438 16.964844 55.28125 15.496094 56.398438 C 13.820312 57.515625 11.511719 58.183594 9.625 57.960938 C 7.738281 57.738281 5.429688 57.070312 3.960938 55.503906 C 2.285156 53.496094 1.023438 49.699219 0.816406 46.574219 C 0.816406 43.667969 1.652344 40.765625 2.914062 37.417969 C 5.011719 32.058594 11.722656 23.792969 13.398438 18.210938 C 14.65625 14.414062 13.609375 10.839844 14.65625 7.9375 C 15.496094 5.703125 16.964844 3.472656 18.644531 2.355469 C 20.53125 1.238281 23.257812 0.792969 25.355469 1.015625 C 26.824219 1.238281 28.292969 1.683594 29.339844 2.800781 C 31.019531 4.589844 32.90625 7.492188 33.117188 11.289062 C 33.324219 19.105469 24.726562 40.988281 20.742188 47.019531 C 19.0625 49.699219 17.382812 50.816406 15.707031 51.707031 C 14.238281 52.378906 12.769531 52.601562 11.300781 52.378906 C 9.414062 51.933594 6.6875 50.367188 5.21875 49.027344 C 4.171875 47.914062 3.542969 46.574219 3.121094 44.785156 C 2.703125 41.660156 3.75 36.523438 4.589844 32.058594 C 5.640625 27.367188 7.527344 21.113281 9.414062 17.539062 C 10.882812 15.308594 12.140625 13.296875 14.027344 12.40625 C 15.917969 11.289062 18.644531 11.066406 20.742188 11.734375 C 22.628906 12.179688 24.726562 13.519531 25.984375 15.753906 C 28.5 19.328125 30.808594 27.8125 30.179688 33.621094 C 29.550781 39.648438 25.773438 48.582031 22.207031 51.707031 C 19.902344 53.71875 16.125 54.164062 13.820312 53.496094 C 11.511719 53.046875 9.625 51.484375 8.367188 49.253906 C 6.6875 46.125 5.847656 39.203125 6.269531 35.40625 C 6.898438 32.949219 8.15625 30.714844 9.625 29.375 C 10.882812 28.035156 12.140625 27.367188 13.609375 27.144531 C 15.496094 26.921875 18.433594 26.921875 20.320312 28.261719 C 22.417969 29.601562 25.144531 36.078125 25.144531 36.078125 "/></clipPath><clipPath id="205d09beb2"><rect x="0" width="34" y="0" height="59"/></clipPath><clipPath id="dc376364d9"><path d="M 275.597656 142 L 293.734375 142 L 293.734375 161.265625 L 275.597656 161.265625 Z M 275.597656 142 "/></clipPath><clipPath id="a31bde3781"><path d="M 293.675781 148.816406 C 291.160156 159.3125 290.113281 160.429688 288.433594 160.875 C 286.335938 161.542969 281.929688 161.320312 279.835938 160.429688 C 278.367188 159.535156 277.316406 158.417969 276.476562 156.855469 C 275.640625 154.621094 275.429688 149.933594 276.058594 147.699219 C 276.476562 145.914062 277.527344 144.796875 278.785156 143.902344 C 280.882812 142.5625 285.289062 141.667969 287.386719 142.117188 C 289.0625 142.339844 291.371094 144.574219 291.371094 144.574219 "/></clipPath><clipPath id="4a395d9097"><path d="M 0.597656 0 L 18.734375 0 L 18.734375 19.265625 L 0.597656 19.265625 Z M 0.597656 0 "/></clipPath><clipPath id="6df2a9118e"><path d="M 18.675781 6.816406 C 16.160156 17.3125 15.113281 18.429688 13.433594 18.875 C 11.335938 19.542969 6.929688 19.320312 4.835938 18.429688 C 3.367188 17.535156 2.316406 16.417969 1.476562 14.855469 C 0.640625 12.621094 0.429688 7.933594 1.058594 5.699219 C 1.476562 3.914062 2.527344 2.796875 3.785156 1.902344 C 5.882812 0.5625 10.289062 -0.332031 12.386719 0.117188 C 14.0625 0.339844 16.371094 2.574219 16.371094 2.574219 "/></clipPath><clipPath id="b5c1d0d19a"><rect x="0" width="19" y="0" height="20"/></clipPath><clipPath id="022090ade7"><path d="M 272.449219 138.566406 L 290.589844 138.566406 L 290.589844 157.914062 L 272.449219 157.914062 Z M 272.449219 138.566406 "/></clipPath><clipPath id="8086b0d6b3"><path d="M 290.53125 145.464844 C 288.015625 155.960938 286.964844 157.078125 285.289062 157.523438 C 283.191406 158.195312 278.785156 157.972656 276.6875 157.078125 C 275.21875 156.183594 274.171875 155.070312 273.332031 153.503906 C 272.492188 151.273438 272.285156 146.582031 272.914062 144.347656 C 273.332031 142.5625 274.378906 141.445312 275.640625 140.550781 C 277.738281 139.210938 282.140625 138.320312 284.238281 138.765625 C 285.917969 138.988281 288.222656 141.222656 288.222656 141.222656 "/></clipPath><clipPath id="4cb7082532"><path d="M 0.449219 0.566406 L 18.589844 0.566406 L 18.589844 19.914062 L 0.449219 19.914062 Z M 0.449219 0.566406 "/></clipPath><clipPath id="43ae93d17b"><path d="M 18.53125 7.464844 C 16.015625 17.960938 14.964844 19.078125 13.289062 19.523438 C 11.191406 20.195312 6.785156 19.972656 4.6875 19.078125 C 3.21875 18.183594 2.171875 17.070312 1.332031 15.503906 C 0.492188 13.273438 0.285156 8.582031 0.914062 6.347656 C 1.332031 4.5625 2.378906 3.445312 3.640625 2.550781 C 5.738281 1.210938 10.140625 0.320312 12.238281 0.765625 C 13.917969 0.988281 16.222656 3.222656 16.222656 3.222656 "/></clipPath><clipPath id="d9c05ea1a3"><rect x="0" width="19" y="0" height="20"/></clipPath><clipPath id="6bb65c8716"><path d="M 276.226562 145.625 L 294.363281 145.625 L 294.363281 165.105469 L 276.226562 165.105469 Z M 276.226562 145.625 "/></clipPath><clipPath id="4b71383cd2"><path d="M 294.304688 152.613281 C 291.789062 163.109375 290.742188 164.222656 289.0625 164.671875 C 286.964844 165.339844 282.5625 165.117188 280.464844 164.222656 C 278.996094 163.332031 277.945312 162.214844 277.105469 160.652344 C 276.269531 158.417969 276.058594 153.726562 276.6875 151.496094 C 277.105469 149.707031 278.367188 148.59375 279.414062 147.699219 C 280.671875 146.582031 281.929688 145.6875 283.609375 145.6875 C 285.917969 145.464844 292 148.367188 292 148.367188 "/></clipPath><clipPath id="4897e7bb6a"><path d="M 0.226562 0.625 L 18.363281 0.625 L 18.363281 20.105469 L 0.226562 20.105469 Z M 0.226562 0.625 "/></clipPath><clipPath id="6194036120"><path d="M 18.304688 7.613281 C 15.789062 18.109375 14.742188 19.222656 13.0625 19.671875 C 10.964844 20.339844 6.5625 20.117188 4.464844 19.222656 C 2.996094 18.332031 1.945312 17.214844 1.105469 15.652344 C 0.269531 13.417969 0.0585938 8.726562 0.6875 6.496094 C 1.105469 4.707031 2.367188 3.59375 3.414062 2.699219 C 4.671875 1.582031 5.929688 0.6875 7.609375 0.6875 C 9.917969 0.464844 16 3.367188 16 3.367188 "/></clipPath><clipPath id="927251a5ca"><rect x="0" width="19" y="0" height="21"/></clipPath><clipPath id="606e15b552"><path d="M 271.191406 141.605469 L 289.332031 141.605469 L 289.332031 161.085938 L 271.191406 161.085938 Z M 271.191406 141.605469 "/></clipPath><clipPath id="c9a29c5baf"><path d="M 289.273438 148.59375 C 286.753906 159.089844 285.707031 160.203125 284.027344 160.652344 C 281.929688 161.320312 277.527344 161.097656 275.429688 160.203125 C 273.960938 159.3125 272.914062 158.195312 272.074219 156.632812 C 271.234375 154.398438 271.023438 149.707031 271.652344 147.476562 C 272.074219 145.6875 273.332031 144.574219 274.378906 143.679688 C 275.640625 142.5625 276.898438 141.667969 278.574219 141.667969 C 280.882812 141.445312 286.964844 144.347656 286.964844 144.347656 "/></clipPath><clipPath id="49e9e19da0"><path d="M 0.191406 0.605469 L 18.332031 0.605469 L 18.332031 20.085938 L 0.191406 20.085938 Z M 0.191406 0.605469 "/></clipPath><clipPath id="3b16f0baad"><path d="M 18.273438 7.59375 C 15.753906 18.089844 14.707031 19.203125 13.027344 19.652344 C 10.929688 20.320312 6.527344 20.097656 4.429688 19.203125 C 2.960938 18.3125 1.914062 17.195312 1.074219 15.632812 C 0.234375 13.398438 0.0234375 8.707031 0.652344 6.476562 C 1.074219 4.6875 2.332031 3.574219 3.378906 2.679688 C 4.640625 1.5625 5.898438 0.667969 7.574219 0.667969 C 9.882812 0.445312 15.964844 3.347656 15.964844 3.347656 "/></clipPath><clipPath id="6c4549243a"><rect x="0" width="19" y="0" height="21"/></clipPath><clipPath id="09d104e0eb"><path d="M 270 137.808594 L 288.074219 137.808594 L 288.074219 157.292969 L 270 157.292969 Z M 270 137.808594 "/></clipPath><clipPath id="90c14dfe98"><path d="M 288.015625 144.796875 C 285.496094 155.292969 284.449219 156.410156 282.769531 156.855469 C 280.671875 157.523438 276.269531 157.300781 274.171875 156.410156 C 272.703125 155.515625 271.652344 154.398438 270.816406 152.835938 C 269.976562 150.601562 269.765625 145.914062 270.394531 143.679688 C 270.816406 141.894531 272.074219 140.777344 273.121094 139.882812 C 274.378906 138.765625 275.640625 137.871094 277.316406 137.871094 C 279.625 137.648438 285.707031 140.550781 285.707031 140.550781 "/></clipPath><clipPath id="5fade33767"><path d="M 0 0.808594 L 18.074219 0.808594 L 18.074219 20.292969 L 0 20.292969 Z M 0 0.808594 "/></clipPath><clipPath id="b7f260ae70"><path d="M 18.015625 7.796875 C 15.496094 18.292969 14.449219 19.410156 12.769531 19.855469 C 10.671875 20.523438 6.269531 20.300781 4.171875 19.410156 C 2.703125 18.515625 1.652344 17.398438 0.816406 15.835938 C -0.0234375 13.601562 -0.234375 8.914062 0.394531 6.679688 C 0.816406 4.894531 2.074219 3.777344 3.121094 2.882812 C 4.378906 1.765625 5.640625 0.871094 7.316406 0.871094 C 9.625 0.648438 15.707031 3.550781 15.707031 3.550781 "/></clipPath><clipPath id="5374bcd794"><rect x="0" width="19" y="0" height="21"/></clipPath><clipPath id="90feff3a43"><path d="M 314.777344 206 L 331.265625 206 L 331.265625 222.210938 L 314.777344 222.210938 Z M 314.777344 206 "/></clipPath><clipPath id="6fc1c0f1a0"><path d="M 331.222656 211.726562 C 329.125 220.742188 328.074219 221.375 326.605469 221.792969 C 324.71875 222.421875 320.734375 222.210938 318.847656 221.375 C 317.585938 220.742188 316.75 219.695312 316.121094 218.648438 C 315.488281 217.386719 314.859375 216.128906 314.859375 214.660156 C 315.070312 212.773438 316.539062 209 318.007812 207.738281 C 319.054688 206.691406 320.3125 206.0625 321.78125 206.0625 C 323.671875 205.851562 329.125 208.371094 329.125 208.371094 "/></clipPath><clipPath id="f7fd9efdec"><path d="M 314.777344 228.632812 L 331.265625 228.632812 L 331.265625 244.863281 L 314.777344 244.863281 Z M 314.777344 228.632812 "/></clipPath><clipPath id="198e92a843"><path d="M 331.222656 234.378906 C 329.125 243.394531 328.074219 244.027344 326.605469 244.445312 C 324.71875 245.074219 320.734375 244.863281 318.847656 244.027344 C 317.585938 243.394531 316.75 242.347656 316.121094 241.296875 C 315.488281 240.039062 314.859375 238.78125 314.859375 237.3125 C 315.070312 235.425781 316.539062 231.652344 318.007812 230.390625 C 319.054688 229.34375 320.3125 228.714844 321.78125 228.714844 C 323.671875 228.503906 329.125 231.019531 329.125 231.019531 "/></clipPath><clipPath id="8eb94d561c"><path d="M 0.777344 0.632812 L 17.265625 0.632812 L 17.265625 16.863281 L 0.777344 16.863281 Z M 0.777344 0.632812 "/></clipPath><clipPath id="07d5660e62"><path d="M 17.222656 6.378906 C 15.125 15.394531 14.074219 16.027344 12.605469 16.445312 C 10.71875 17.074219 6.734375 16.863281 4.847656 16.027344 C 3.585938 15.394531 2.75 14.347656 2.121094 13.296875 C 1.488281 12.039062 0.859375 10.78125 0.859375 9.3125 C 1.070312 7.425781 2.539062 3.652344 4.007812 2.390625 C 5.054688 1.34375 6.3125 0.714844 7.78125 0.714844 C 9.671875 0.503906 15.125 3.019531 15.125 3.019531 "/></clipPath><clipPath id="d7e33683bb"><rect x="0" width="18" y="0" height="17"/></clipPath><clipPath id="8959d23881"><path d="M 314.570312 256.109375 L 331.058594 256.109375 L 331.058594 272.339844 L 314.570312 272.339844 Z M 314.570312 256.109375 "/></clipPath><clipPath id="52a2665fb2"><path d="M 331.011719 261.851562 C 328.914062 270.871094 327.863281 271.5 326.398438 271.921875 C 324.507812 272.550781 320.523438 272.339844 318.636719 271.5 C 317.378906 270.871094 316.539062 269.824219 315.910156 268.773438 C 315.28125 267.515625 314.652344 266.257812 314.652344 264.789062 C 314.859375 262.902344 316.328125 259.125 317.796875 257.867188 C 318.847656 256.820312 320.105469 256.191406 321.574219 256.191406 C 323.460938 255.980469 328.914062 258.496094 328.914062 258.496094 "/></clipPath><clipPath id="d6d9ac0fc5"><path d="M 0.640625 0.109375 L 17.058594 0.109375 L 17.058594 16.339844 L 0.640625 16.339844 Z M 0.640625 0.109375 "/></clipPath><clipPath id="543bced3d1"><path d="M 17.011719 5.851562 C 14.914062 14.871094 13.863281 15.5 12.398438 15.921875 C 10.507812 16.550781 6.523438 16.339844 4.636719 15.5 C 3.378906 14.871094 2.539062 13.824219 1.910156 12.773438 C 1.28125 11.515625 0.652344 10.257812 0.652344 8.789062 C 0.859375 6.902344 2.328125 3.125 3.796875 1.867188 C 4.847656 0.820312 6.105469 0.191406 7.574219 0.191406 C 9.460938 -0.0195312 14.914062 2.496094 14.914062 2.496094 "/></clipPath><clipPath id="d557d11ce0"><rect x="0" width="18" y="0" height="17"/></clipPath><clipPath id="bde0f0a901"><path d="M 139.34375 93.808594 L 233 93.808594 L 233 282.808594 L 139.34375 282.808594 Z M 139.34375 93.808594 "/></clipPath><clipPath id="e3c9cbd83e"><path d="M 143 96 L 237.59375 96 L 237.59375 282.808594 L 143 282.808594 Z M 143 96 "/></clipPath></defs><g id="41187a3034"><g clip-rule="nonzero" clip-path="url(#75d9305b20)"><rect x="0" width="375" y="0" height="374.999991" style="fill:#fefae2;fill-opacity:1;stroke:none;"/></g><g clip-rule="nonzero" clip-path="url(#eddefdb546)"><g clip-rule="nonzero" clip-path="url(#c69ce818f1)"><path style=" stroke:none;fill-rule:nonzero;fill:#2f381d;fill-opacity:1;" d="M 62.65625 177.746094 L 97.054688 177.746094 L 97.054688 301.765625 L 62.65625 301.765625 Z M 62.65625 177.746094 "/></g></g><g clip-rule="nonzero" clip-path="url(#1b637f43bb)"><g clip-rule="nonzero" clip-path="url(#4c31c14982)"><path style=" stroke:none;fill-rule:nonzero;fill:#2f381d;fill-opacity:1;" d="M 35.179688 73.296875 L 127.886719 73.296875 L 127.886719 207.648438 L 35.179688 207.648438 Z M 35.179688 73.296875 "/></g></g><g clip-rule="nonzero" clip-path="url(#18f419a206)"><g clip-rule="nonzero" clip-path="url(#f73f7c3e9b)"><path style=" stroke:none;fill-rule:nonzero;fill:#2f381d;fill-opacity:1;" d="M 66.925781 104.339844 L 92.78125 104.339844 L 92.78125 161.105469 L 66.925781 161.105469 Z M 66.925781 104.339844 "/></g></g><g clip-rule="nonzero" clip-path="url(#f6cfdfe430)"><g clip-rule="nonzero" clip-path="url(#ed5084d856)"><path style=" stroke:none;fill-rule:nonzero;fill:#2f381d;fill-opacity:1;" d="M 36.226562 197.671875 L 69.585938 197.671875 L 69.585938 230.390625 L 36.226562 230.390625 Z M 36.226562 197.671875 "/></g></g><g clip-rule="nonzero" clip-path="url(#48d8303cd2)"><g clip-rule="nonzero" clip-path="url(#a38bc95a5e)"><g mask="url(#b635a1b8a6)" transform="matrix(1,0,0,1,44,228)"><g clip-path="url(#475efc659d)"><g clip-rule="nonzero" clip-path="url(#589c9d377f)"><g clip-rule="nonzero" clip-path="url(#74d319315a)"><rect x="0" width="17" height="17" y="0" style="fill:#2f381d;fill-opacity:1;stroke:none;"/></g></g></g><mask id="b635a1b8a6"><g filter="url(#e3f86fbfe2)"><rect x="0" width="375" y="0" height="374.999991" style="fill:#000000;fill-opacity:0.66;stroke:none;"/></g></mask></g></g></g><g clip-rule="nonzero" clip-path="url(#8180281acc)"><g clip-rule="nonzero" clip-path="url(#29d7d3d8fa)"><g mask="url(#98100e3470)" transform="matrix(1,0,0,1,44,256)"><g clip-path="url(#db8e93e01e)"><g clip-rule="nonzero" clip-path="url(#9f7f3445d4)"><g clip-rule="nonzero" clip-path="url(#ec2d7fa3da)"><rect x="0" width="17" height="17" y="0" style="fill:#2f381d;fill-opacity:1;stroke:none;"/></g></g></g><mask id="98100e3470"><g filter="url(#e3f86fbfe2)"><rect x="0" width="375" y="0" height="374.999991" style="fill:#000000;fill-opacity:0.31;stroke:none;"/></g></mask></g></g></g><g clip-rule="nonzero" clip-path="url(#e01e4e722d)"><g clip-rule="nonzero" clip-path="url(#a7ba51c602)"><path style=" stroke:none;fill-rule:nonzero;fill:#2f381d;fill-opacity:1;" d="M 279.820312 170.539062 L 314.21875 170.539062 L 314.21875 301.679688 L 279.820312 301.679688 Z M 279.820312 170.539062 "/></g></g><g clip-rule="nonzero" clip-path="url(#3f1442d923)"><g clip-rule="nonzero" clip-path="url(#70b3176c39)"><path style=" stroke:none;fill-rule:nonzero;fill:#2f381d;fill-opacity:1;" d="M 250.890625 86.507812 L 311.925781 86.507812 L 311.925781 224.078125 L 250.890625 224.078125 Z M 250.890625 86.507812 "/></g></g><g clip-rule="nonzero" clip-path="url(#457c9e0021)"><g clip-rule="nonzero" clip-path="url(#eda31edb2e)"><g mask="url(#813122e42a)" transform="matrix(1,0,0,1,273,110)"><g clip-path="url(#e3e32e1dad)"><g clip-rule="nonzero" clip-path="url(#c38bec0505)"><g clip-rule="nonzero" clip-path="url(#23f03abe02)"><rect x="0" width="28" height="43" y="0" style="fill:#2f381d;fill-opacity:1;stroke:none;"/></g></g></g><mask id="813122e42a"><g filter="url(#e3f86fbfe2)"><rect x="0" width="375" y="0" height="374.999991" style="fill:#000000;fill-opacity:0.87;stroke:none;"/></g></mask></g></g></g><g clip-rule="nonzero" clip-path="url(#5fa84c1f55)"><g clip-rule="nonzero" clip-path="url(#70582dd477)"><g mask="url(#3518347fe2)" transform="matrix(1,0,0,1,262,144)"><g clip-path="url(#e803cfa568)"><g clip-rule="nonzero" clip-path="url(#787fa633de)"><g clip-rule="nonzero" clip-path="url(#4c26146b46)"><rect x="0" width="37" height="42" y="0" style="fill:#2f381d;fill-opacity:1;stroke:none;"/></g></g></g><mask id="3518347fe2"><g filter="url(#e3f86fbfe2)"><rect x="0" width="375" y="0" height="374.999991" style="fill:#000000;fill-opacity:0.74;stroke:none;"/></g></mask></g></g></g><g clip-rule="nonzero" clip-path="url(#e462910c32)"><g clip-rule="nonzero" clip-path="url(#56eaa5b789)"><g mask="url(#bd5784e0e5)" transform="matrix(1,0,0,1,268,170)"><g clip-path="url(#3ec4d38b69)"><g clip-rule="nonzero" clip-path="url(#c46ab44873)"><g clip-rule="nonzero" clip-path="url(#fe08457955)"><rect x="0" width="25" height="35" y="0" style="fill:#2f381d;fill-opacity:1;stroke:none;"/></g></g></g><mask id="bd5784e0e5"><g filter="url(#e3f86fbfe2)"><rect x="0" width="375" y="0" height="374.999991" style="fill:#000000;fill-opacity:0.15;stroke:none;"/></g></mask></g></g></g><g clip-rule="nonzero" clip-path="url(#a3c84bf6fb)"><g clip-rule="nonzero" clip-path="url(#1a104fdb49)"><g mask="url(#fad133d8b8)" transform="matrix(1,0,0,1,269,173)"><g clip-path="url(#0283dec942)"><g clip-rule="nonzero" clip-path="url(#972a7ef7d0)"><g clip-rule="nonzero" clip-path="url(#85e838356c)"><rect x="0" width="25" height="31" y="0" style="fill:#2f381d;fill-opacity:1;stroke:none;"/></g></g></g><mask id="fad133d8b8"><g filter="url(#e3f86fbfe2)"><rect x="0" width="375" y="0" height="374.999991" style="fill:#000000;fill-opacity:0.12;stroke:none;"/></g></mask></g></g></g><g clip-rule="nonzero" clip-path="url(#ad78fce92e)"><g clip-rule="nonzero" clip-path="url(#b1ee45d5cf)"><g mask="url(#5ced49c702)" transform="matrix(1,0,0,1,259,137)"><g clip-path="url(#1b5e8e657c)"><g clip-rule="nonzero" clip-path="url(#9f1d997a5f)"><g clip-rule="nonzero" clip-path="url(#437130bc61)"><rect x="0" width="38" height="28" y="0" style="fill:#2f381d;fill-opacity:1;stroke:none;"/></g></g></g><mask id="5ced49c702"><g filter="url(#e3f86fbfe2)"><rect x="0" width="375" y="0" height="374.999991" style="fill:#000000;fill-opacity:0.12;stroke:none;"/></g></mask></g></g></g><g clip-rule="nonzero" clip-path="url(#4416e86563)"><g clip-rule="nonzero" clip-path="url(#85bc464cb2)"><g mask="url(#940cdc70f4)" transform="matrix(1,0,0,1,270,98)"><g clip-path="url(#205d09beb2)"><g clip-rule="nonzero" clip-path="url(#012c234379)"><g clip-rule="nonzero" clip-path="url(#c1d53bc28a)"><rect x="0" width="34" height="59" y="0" style="fill:#2f381d;fill-opacity:1;stroke:none;"/></g></g></g><mask id="940cdc70f4"><g filter="url(#e3f86fbfe2)"><rect x="0" width="375" y="0" height="374.999991" style="fill:#000000;fill-opacity:0.8;stroke:none;"/></g></mask></g></g></g><g clip-rule="nonzero" clip-path="url(#dc376364d9)"><g clip-rule="nonzero" clip-path="url(#a31bde3781)"><g mask="url(#02bd1a7f26)" transform="matrix(1,0,0,1,275,142)"><g clip-path="url(#b5c1d0d19a)"><g clip-rule="nonzero" clip-path="url(#4a395d9097)"><g clip-rule="nonzero" clip-path="url(#6df2a9118e)"><rect x="0" width="19" height="20" y="0" style="fill:#2f381d;fill-opacity:1;stroke:none;"/></g></g></g><mask id="02bd1a7f26"><g filter="url(#e3f86fbfe2)"><rect x="0" width="375" y="0" height="374.999991" style="fill:#000000;fill-opacity:0.8;stroke:none;"/></g></mask></g></g></g><g clip-rule="nonzero" clip-path="url(#022090ade7)"><g clip-rule="nonzero" clip-path="url(#8086b0d6b3)"><g mask="url(#1ccb764d5d)" transform="matrix(1,0,0,1,272,138)"><g clip-path="url(#d9c05ea1a3)"><g clip-rule="nonzero" clip-path="url(#4cb7082532)"><g clip-rule="nonzero" clip-path="url(#43ae93d17b)"><rect x="0" width="19" height="20" y="0" style="fill:#2f381d;fill-opacity:1;stroke:none;"/></g></g></g><mask id="1ccb764d5d"><g filter="url(#e3f86fbfe2)"><rect x="0" width="375" y="0" height="374.999991" style="fill:#000000;fill-opacity:0.8;stroke:none;"/></g></mask></g></g></g><g clip-rule="nonzero" clip-path="url(#6bb65c8716)"><g clip-rule="nonzero" clip-path="url(#4b71383cd2)"><g mask="url(#e644b494f8)" transform="matrix(1,0,0,1,276,145)"><g clip-path="url(#927251a5ca)"><g clip-rule="nonzero" clip-path="url(#4897e7bb6a)"><g clip-rule="nonzero" clip-path="url(#6194036120)"><rect x="0" width="19" height="21" y="0" style="fill:#2f381d;fill-opacity:1;stroke:none;"/></g></g></g><mask id="e644b494f8"><g filter="url(#e3f86fbfe2)"><rect x="0" width="375" y="0" height="374.999991" style="fill:#000000;fill-opacity:0.8;stroke:none;"/></g></mask></g></g></g><g clip-rule="nonzero" clip-path="url(#606e15b552)"><g clip-rule="nonzero" clip-path="url(#c9a29c5baf)"><g mask="url(#6fc49751b1)" transform="matrix(1,0,0,1,271,141)"><g clip-path="url(#6c4549243a)"><g clip-rule="nonzero" clip-path="url(#49e9e19da0)"><g clip-rule="nonzero" clip-path="url(#3b16f0baad)"><rect x="0" width="19" height="21" y="0" style="fill:#2f381d;fill-opacity:1;stroke:none;"/></g></g></g><mask id="6fc49751b1"><g filter="url(#e3f86fbfe2)"><rect x="0" width="375" y="0" height="374.999991" style="fill:#000000;fill-opacity:0.8;stroke:none;"/></g></mask></g></g></g><g clip-rule="nonzero" clip-path="url(#09d104e0eb)"><g clip-rule="nonzero" clip-path="url(#90c14dfe98)"><g mask="url(#4d458528c1)" transform="matrix(1,0,0,1,270,137)"><g clip-path="url(#5374bcd794)"><g clip-rule="nonzero" clip-path="url(#5fade33767)"><g clip-rule="nonzero" clip-path="url(#b7f260ae70)"><rect x="0" width="19" height="21" y="0" style="fill:#2f381d;fill-opacity:1;stroke:none;"/></g></g></g><mask id="4d458528c1"><g filter="url(#e3f86fbfe2)"><rect x="0" width="375" y="0" height="374.999991" style="fill:#000000;fill-opacity:0.8;stroke:none;"/></g></mask></g></g></g><g clip-rule="nonzero" clip-path="url(#90feff3a43)"><g clip-rule="nonzero" clip-path="url(#6fc1c0f1a0)"><path style=" stroke:none;fill-rule:nonzero;fill:#2f381d;fill-opacity:1;" d="M 306.472656 197.671875 L 339.828125 197.671875 L 339.828125 230.390625 L 306.472656 230.390625 Z M 306.472656 197.671875 "/></g></g><g clip-rule="nonzero" clip-path="url(#f7fd9efdec)"><g clip-rule="nonzero" clip-path="url(#198e92a843)"><g mask="url(#99d35c3fad)" transform="matrix(1,0,0,1,314,228)"><g clip-path="url(#d7e33683bb)"><g clip-rule="nonzero" clip-path="url(#8eb94d561c)"><g clip-rule="nonzero" clip-path="url(#07d5660e62)"><rect x="0" width="18" height="17" y="0" style="fill:#2f381d;fill-opacity:1;stroke:none;"/></g></g></g><mask id="99d35c3fad"><g filter="url(#e3f86fbfe2)"><rect x="0" width="375" y="0" height="374.999991" style="fill:#000000;fill-opacity:0.66;stroke:none;"/></g></mask></g></g></g><g clip-rule="nonzero" clip-path="url(#8959d23881)"><g clip-rule="nonzero" clip-path="url(#52a2665fb2)"><g mask="url(#eeacdd918a)" transform="matrix(1,0,0,1,314,256)"><g clip-path="url(#d557d11ce0)"><g clip-rule="nonzero" clip-path="url(#d6d9ac0fc5)"><g clip-rule="nonzero" clip-path="url(#543bced3d1)"><rect x="0" width="18" height="17" y="0" style="fill:#2f381d;fill-opacity:1;stroke:none;"/></g></g></g><mask id="eeacdd918a"><g filter="url(#e3f86fbfe2)"><rect x="0" width="375" y="0" height="374.999991" style="fill:#000000;fill-opacity:0.31;stroke:none;"/></g></mask></g></g></g><g clip-rule="nonzero" clip-path="url(#bde0f0a901)"><path style=" stroke:none;fill-rule:nonzero;fill:#2f381d;fill-opacity:1;" d="M 231.648438 267.53125 L 231.648438 259.023438 L 139.34375 259.023438 L 139.34375 268.171875 C 139.34375 275.8125 145.558594 282.023438 153.199219 282.023438 L 217.117188 282.023438 C 225.136719 282.023438 231.648438 275.550781 231.648438 267.53125 Z M 218.019531 93.882812 L 155.910156 93.882812 C 147.0625 93.882812 139.871094 101.074219 139.871094 109.917969 L 139.871094 114.8125 L 232.175781 114.8125 L 232.175781 108.035156 C 232.175781 100.207031 225.8125 93.882812 218.019531 93.882812 Z M 231.648438 254.808594 L 139.871094 254.808594 L 139.871094 118.5 L 231.609375 118.5 L 231.609375 254.808594 L 231.648438 254.808594 "/></g><path style=" stroke:none;fill-rule:nonzero;fill:#fefae2;fill-opacity:1;" d="M 190.578125 263.804688 C 187.71875 263.804688 185.382812 266.101562 185.382812 268.886719 C 185.382812 271.671875 187.71875 273.96875 190.578125 273.96875 C 193.441406 273.96875 195.773438 271.671875 195.773438 268.886719 C 195.773438 266.101562 193.441406 263.804688 190.578125 263.804688 Z M 206.953125 106.152344 L 206.953125 104.871094 C 206.953125 104.570312 206.726562 104.347656 206.425781 104.347656 L 176.238281 104.347656 C 175.933594 104.347656 175.710938 104.570312 175.710938 104.871094 L 175.710938 106.152344 C 175.710938 106.453125 175.933594 106.679688 176.238281 106.679688 L 206.425781 106.679688 C 206.691406 106.679688 206.953125 106.453125 206.953125 106.152344 Z M 228.710938 250.292969 L 143.710938 250.292969 L 143.714844 121.8125 L 228.710938 121.8125 L 228.710938 250.289062 "/><g clip-rule="nonzero" clip-path="url(#e3c9cbd83e)"><path style=" stroke:none;fill-rule:nonzero;fill:#2f381d;fill-opacity:1;" d="M 160.914062 98.324219 C 152.292969 98.324219 145.292969 105.324219 145.292969 113.945312 L 145.292969 264.820312 C 145.292969 273.441406 152.292969 280.445312 160.914062 280.445312 L 220.28125 280.445312 C 228.898438 280.445312 235.902344 273.441406 235.902344 264.820312 L 235.902344 113.945312 C 235.902344 105.324219 228.898438 98.324219 220.28125 98.324219 Z M 220.28125 282.101562 L 160.914062 282.101562 C 151.390625 282.101562 143.636719 274.347656 143.636719 264.820312 L 143.636719 113.945312 C 143.636719 104.421875 151.390625 96.667969 160.917969 96.667969 L 220.28125 96.667969 C 229.839844 96.667969 237.597656 104.421875 237.597656 113.945312 L 237.597656 264.824219 C 237.597656 274.347656 229.839844 282.101562 220.28125 282.101562 "/></g></g></svg>